<svg xmlns:dc="http://purl.org/dc/elements/1.1/" xmlns:cc="http://creativecommons.org/ns#" xmlns:rdf="http://www.w3.org/1999/02/22-rdf-syntax-ns#" xmlns:svg="http://www.w3.org/2000/svg" xmlns="http://www.w3.org/2000/svg" xmlns:xlink="http://www.w3.org/1999/xlink" xmlns:sodipodi="http://sodipodi.sourceforge.net/DTD/sodipodi-0.dtd" xmlns:inkscape="http://www.inkscape.org/namespaces/inkscape" height="575.948" id="svg2" inkscape:version="0.48.2 r9819" sodipodi:docname="Mars_dan_gerhards_01.svg" sodipodi:version="0.32" width="575.71429" version="1.1"><defs id="defs4"><linearGradient id="linearGradient33465"><stop id="stop33467" offset="0.0000000" style="stop-color:#f2f2f2;stop-opacity:0.15306123;"/><stop id="stop33473" offset="0.50000000" style="stop-color:#7f7f7f;stop-opacity:0.0000000;"/><stop id="stop33475" offset="0.75000000" style="stop-color:#3f3f3f;stop-opacity:0.23469388;"/><stop id="stop33469" offset="1.0000000" style="stop-color:#000000;stop-opacity:0.42857143;"/></linearGradient><linearGradient id="linearGradient32704"><stop id="stop32706" style="stop-color:#9f673a;stop-opacity:1;"/><stop id="stop32708" offset="1.0000000" style="stop-color:#9f673a;stop-opacity:0.36734694;"/></linearGradient><linearGradient id="linearGradient12566"><stop id="stop12568" style="stop-color:#5f4433;stop-opacity:1;"/><stop id="stop12570" offset="1" style="stop-color:#5f4433;stop-opacity:0;"/></linearGradient><linearGradient id="linearGradient3579"><stop id="stop3581" offset="0.0000000" style="stop-color:#4c362c;stop-opacity:1.0000000;"/><stop id="stop3583" offset="1.0000000" style="stop-color:#93654c;stop-opacity:0.51020408;"/></linearGradient><radialGradient cx="448.98267" cy="367.5387" fx="448.98267" fy="367.5387" gradientTransform="matrix(1.910469,-1.038889,0.879096,1.616619,-731.887,239.8125)" gradientUnits="userSpaceOnUse" id="radialGradient3585" inkscape:collect="always" r="110.60883" xlink:href="#linearGradient3579"/><radialGradient cx="502.37537" cy="403.61783" fx="502.37537" fy="403.61783" gradientTransform="matrix(0.673294,-0.254478,0.300019,0.793784,123.365,177.8547)" gradientUnits="userSpaceOnUse" id="radialGradient8809" inkscape:collect="always" r="110.60883" xlink:href="#linearGradient3579"/><radialGradient cx="423.36948" cy="711.78479" fx="423.36948" fy="711.78479" gradientTransform="matrix(1.240968,2.581194e-8,-1.290633e-8,0.611932,-102.0315,265.2694)" gradientUnits="userSpaceOnUse" id="radialGradient12564" inkscape:collect="always" r="207.49661" xlink:href="#linearGradient12566"/><radialGradient cx="581.94385" cy="498.17563" fx="581.94385" fy="498.17563" gradientTransform="matrix(0.307186,0.05032146,-0.06350888,0.387688,473.0162,347.6981)" gradientUnits="userSpaceOnUse" id="radialGradient16998" inkscape:collect="always" r="207.49661" xlink:href="#linearGradient12566"/><radialGradient cx="223.64059" cy="695.44312" fx="223.64059" fy="695.44312" gradientTransform="matrix(0.353107,-0.117169,0.152641,0.460009,-9.623184,397.1264)" gradientUnits="userSpaceOnUse" id="radialGradient17005" inkscape:collect="always" r="207.49661" xlink:href="#linearGradient12566"/><radialGradient cx="474.41156" cy="280.67084" fx="474.41156" fy="280.67084" gradientTransform="matrix(0.440887,-0.126641,0.156609,0.545218,273.8725,186.9726)" gradientUnits="userSpaceOnUse" id="radialGradient30351" inkscape:collect="always" r="110.60883" xlink:href="#linearGradient3579"/><linearGradient gradientUnits="userSpaceOnUse" id="linearGradient32712" inkscape:collect="always" x1="445" x2="350.71429" xlink:href="#linearGradient32704" y1="749.88306" y2="301.31158"/><radialGradient cx="373.57144" cy="498.79074" fx="373.57144" fy="498.79074" gradientTransform="matrix(1,0,0,1.009926,0,-4.950784)" gradientUnits="userSpaceOnUse" id="radialGradient33471" inkscape:collect="always" r="287.85715" xlink:href="#linearGradient33465"/><radialGradient cx="373.57144" cy="498.79074" fx="373.57144" fy="498.79074" gradientTransform="matrix(1,0,0,1.009926,0,-4.950784)" gradientUnits="userSpaceOnUse" id="radialGradient34930" inkscape:collect="always" r="287.85715" xlink:href="#linearGradient33465"/></defs><sodipodi:namedview bordercolor="#666666" borderopacity="1.0" id="base" inkscape:current-layer="layer1" inkscape:cx="348.10312" inkscape:cy="377.45145" inkscape:document-units="px" inkscape:pageopacity="0.0" inkscape:pageshadow="2" inkscape:window-height="703" inkscape:window-width="1017" inkscape:window-x="129" inkscape:window-y="13" inkscape:zoom="0.7" pagecolor="#ffffff" showborder="false" showgrid="false" fit-margin-top="0" fit-margin-left="0" fit-margin-right="0" fit-margin-bottom="0" inkscape:window-maximized="0"/><g id="layer1" inkscape:groupmode="layer" inkscape:label="Layer 1" transform="translate(-85.714294,-209.49885)"><g id="g32714"><path d="m 661.42859,498.79074 c 0,160.55707 -128.87804,290.7143 -287.85715,290.7143 -158.97911,0 -287.857146,-130.15723 -287.857146,-290.7143 0,-160.55707 128.878036,-290.71429 287.857146,-290.71429 158.97911,0 287.85715,130.15722 287.85715,290.71429 z" id="path1394" sodipodi:cx="373.57144" sodipodi:cy="498.79074" sodipodi:rx="287.85715" sodipodi:ry="290.71429" sodipodi:type="arc" style="color:#000000;fill:#be7539;fill-opacity:1;fill-rule:evenodd;stroke:none;stroke-width:1.25617468;marker:none;visibility:visible;display:inline;overflow:visible" transform="matrix(1,0,0,0.990193,0,3.463013)"/><path d="m 655,558.5229 c -61.97863,268.30438 -413.78093,307.60885 -537.14286,70.00003 14.76794,-1.8564 33.78053,19.22625 40.65948,-3.67331 13.1068,-5.17944 19.57992,37.2509 30.24767,8.85243 13.54624,-11.25412 20.11185,-26.46288 25.52142,-42.76844 23.0782,-3.8835 55.62067,4.24854 64.28572,-25.71428 21.33588,-14.61906 21.02691,-43.99042 24.34709,-67.21096 1.19014,-25.33469 2.49838,-54.55575 20.14156,-73.85654 18.42822,-9.04541 45.47083,-42.12664 18.36849,-56.07536 -22.0103,-15.93216 -50.61731,-6.37191 -74.82097,-16.75451 -27.56005,-8.14352 -62.74788,-12.80546 -85.17903,9.61165 -12.58723,11.56554 -15.00351,-6.07638 -4.91761,-28.73622 13.94293,-18.32827 19.10714,-63.52495 50.6319,-51.26378 24.38131,-6.89328 52.60958,-6.59215 76.46753,-6.59018 2.82988,28.7768 49.47324,21.8565 46.28591,-6.75541 7.63395,-19.50316 37.66662,4.53764 54.8769,0.0364 29.98445,6.57542 40.36285,-34.05417 63.43191,-36.1624 21.25168,12.40987 46.84992,19.10485 64.65203,36.61441 17.45628,7.85312 18.68591,30.82635 -4.28571,30 -31.4168,11.15189 18.90501,50.62882 32.46216,26.07127 10.00842,-11.45275 21.24558,-21.83958 30.65214,-3.67125 21.32547,17.61287 17.08452,48.23329 16.34669,72.8979 -7.13842,28.94678 -5.76757,60.27133 8.48539,86.96892 13.65035,20.46958 19.9783,42.33501 20.21181,66.70408 7.31282,3.76615 17.75262,-0.3901 18.27038,11.47551 z" id="path31249" sodipodi:nodetypes="ccccccccccccccccccccccccc" style="color:#000000;fill:url(#linearGradient32712);fill-opacity:1;fill-rule:evenodd;stroke:none;stroke-width:1px;marker:none;visibility:visible;display:inline;overflow:visible" inkscape:connector-curvature="0"/><path d="m 381.42856,423.07648 c -8.71585,-1e-5 0.61581,-1e-5 -9.51154,-1e-5 -13.99052,3.99424 -32.07537,6.2295 -40.31391,20.01864 -3.28497,16.15632 -24.04849,21.00609 -19.84503,39.32482 3.70754,6.56088 7.3151,11.22454 -1.04379,16.37082 -5.98846,13.47937 -9.10976,28.14863 -8.57143,43.03571 1.21398,13.43208 11.96758,23.66394 17.0102,35.82463 6.45156,12.83162 10.61145,28.38872 22.56569,37.28107 15.70738,4.10407 27.13026,-9.99159 42.55733,-8.66511 8.66902,-8.44701 38.15084,-13.38076 52.15249,-17.4763 15.58761,5.12709 35.28659,4.33187 46.35467,-9.3234 18.45922,-6.74569 145.99398,-58.19483 160.88577,-54.35963 17.72723,0.35706 -5.32366,-35.15375 -7.04223,-47.74983 -7.25006,-11.66909 0.78961,19.57694 -4.75178,2.79956 -1.42407,-17.1441 -6.81152,17.46295 -7.19473,-0.23237 3.72336,-16.55932 -6.81383,-29.56998 -11.57174,-44.4047 -1.00263,-8.18693 6.49507,-31.42972 -1.73628,-33.26082 -4.69259,3.46735 -4.95438,25.72282 -8.54932,11.66946 -5.97914,-10.07021 39.20451,-87.79297 -33.1416,-100.3893 -33.04784,35.7344 -3.76597,27.37144 -13.14772,52.80312 -4.69088,12.71584 -13.69052,3.70178 -21.05166,6.26574 10.496,4.70681 -1.65522,53.84879 0.20788,58.59101 16.74374,5.62833 12.99549,22.49317 18.85511,35.72159 8.56955,2.11595 9.33426,6.60659 0.70402,9.6771 1.96284,8.278 -9.75266,6.82433 -6.00793,16.20394 -8.73783,5.30009 -2.53352,-17.4113 -7.88825,-22.50662 -4.13507,-10.52478 -7.26439,10.35488 -2.13467,13.54696 7.24508,14.94648 -17.71981,7.42656 -11.64222,20.30356 10.29546,10.0439 -8.58877,20.24123 -13.29018,6.78749 -4.68313,-11.67068 -11.77911,-1.22861 -12.5458,4.82874 -4.78798,-7.81434 -27.10142,-16.58477 -17.98465,0.42326 4.02384,9.41954 -12.90738,10.12559 -6.6124,-0.96629 -10.36408,-8.79236 -7.20109,0.40041 -5.75963,7.03479 -10.28753,-3.20698 -18.44363,-22.89154 -28.43589,-17.923 5.24214,18.14679 -19.09248,23.5661 -28.23146,10.6041 -9.14283,-6.11441 -17.56782,-19.54446 -3.94342,-25.86504 5.97921,-10.39765 7.32301,-23.67086 3.71354,-33.87993 16.99647,-7.20436 -11.98656,-10.03951 -4.61666,-22.5973 0.72082,-9.10472 -11.47697,-7.08114 -12.88059,-14.98919 -7.06012,-2.36761 -9.68215,6.50669 -15.56019,5.47273 z M 545,458.79075 c 0,-3.409 3.45891,5.9785 4.28571,9.28572 0.4762,1.90476 1.42858,3.7509 1.42858,5.71428 0,2.53099 -3.92461,-3.21032 -5.71429,-5 -2.56173,-2.56172 -2.83058,-5.28237 0,-10 z M 371.42856,663.07648 c -4.13426,3.14893 -10.89678,1.96753 -13.91189,6.35653 1.66861,7.47085 -8.97719,5.62202 -8.90596,12.63927 -1.92157,5.72441 1.78419,14.16641 -5.75357,14.93276 -5.66528,3.32581 -16.66344,1.51544 -20.82011,-3.17985 -4.57104,-3.02678 -10.77859,-2.94512 -14.28213,1.7229 -5.67528,2.9512 -11.88776,-1.60945 -16.8773,-4.20375 -3.59611,-3.23265 -7.36774,-6.19577 -11.16576,-9.15688 -4.45712,-5.48859 -12.18964,-5.71973 -18.28327,-8.39671 -7.22399,-1.00833 -7.48497,-9.52097 -10.53421,-14.57707 -3.15669,-5.97914 -5.95417,-12.0887 -9.35968,-17.97992 -3.84898,-6.14256 -1.33099,-15.48674 5.60818,-18.15729 4.66171,-2.85241 10.80212,-5.7429 15.95813,-2.33361 5.59155,2.36915 96.85232,37.60774 103.32758,40.19075 1.6122,0.83739 3.31647,1.46864 4.99999,2.14287 z M 212.85714,258.79075 c 14.76811,-10.12232 31.02769,-19.16712 49.46428,-26.78571 2.54374,3.45284 12.81706,-1.03046 17.51801,-1.19906 6.53546,-3.95399 13.77269,-5.44558 21.3494,-5.10076 8.33402,0.73813 -4.49121,3.49185 -6.93607,3.60269 -7.26878,0.95784 -14.68942,4.18661 -19.85918,9.29732 -0.79281,8.7779 9.67327,2.98601 14.05725,1.85072 4.09877,-1.30531 12.9746,-3.91519 9.31963,3.87361 -3.56962,7.8944 -14.07231,7.99695 -21.08171,11.32033 -10.70326,3.56137 -21.42662,7.61038 -31.00507,13.60211 -6.62857,5.59847 1.35239,9.085 6.90279,7.36521 9.17132,-0.8607 18.38954,-0.55382 27.57331,-0.82167 5.57678,-1.3009 14.87201,-10.95598 18.73699,-2.7429 -3.45814,9.15625 8.59569,0.74555 9.55783,4.97048 -3.48704,5.79246 -3.52395,12.871 4.0541,15.06684 6.20255,3.60708 13.21951,5.088 20.34844,4.27222 10.36376,-0.0878 -0.98023,10.07433 2.11852,14.80608 3.22563,2.90442 11.24177,8.64163 3.23772,11.31863 -6.45522,2.14182 -15.41604,-1.30627 -19.58336,5.65473 5.12622,6.72906 -7.23263,6.82302 -11.51027,8.89542 -8.26091,2.23901 -15.94138,-2.54215 -22.18139,-7.3766 -8.64198,-4.53028 -18.60191,-5.24177 -28.1827,-4.70432 -8.0212,0.10337 -15.80265,2.53631 -23.85883,2.14014 -8.2712,1.14125 -16.86829,2.44069 -24.00922,7.12379 -7.75981,2.47604 -14.5942,8.29806 -23.21282,7.14116 -5.99939,-2.08861 2.18445,-11.94017 3.64185,-16.00117 3.18508,-7.80091 9.11685,-14.08013 12.20146,-21.86425 1.63933,-6.36587 8.60107,-9.39226 11.5657,-15.0831 1.61878,-6.61118 5.00742,-12.72326 5.83386,-19.52429 0.3111,-3.84341 -3.41792,-8.56462 -6.06052,-11.09765 z m 67.85715,35.71429 c 2.4632,1.47278 2.50249,4.78222 4.49503,6.67944 1.78708,1.31943 1.65787,3.61683 -0.88938,3.15407 -5.44361,0.80459 -11.17748,0.78699 -16.18797,3.35668 -3.91225,1.75643 -7.89332,3.43593 -12.11696,4.27648 -5.47333,1.47621 -11.22064,2.38717 -16.88066,1.58236 -2.04015,0.70211 -5.96298,-0.80135 -3.94448,-3.31842 2.30798,-3.57712 6.76162,-4.93056 10.8268,-4.92941 3.64196,-0.0982 7.43999,0.0417 10.82179,-1.52964 3.21347,-0.82285 6.76336,-0.83365 9.53408,-2.89261 4.51675,-2.65571 9.1471,-5.32233 14.34175,-6.37895 z m 142.14285,-80.71429 c 40.07768,7.27688 74.98506,20.64208 112.58927,45.44645 -3.73508,-3.40992 -13.01485,6.98566 -5.18383,7.95651 6.10053,1.46717 11.19667,5.15235 16.9805,7.38003 5.70966,0.90013 6.17214,9.68611 -0.81451,7.78844 -6.64433,1.5075 -3.45525,9.53865 -2.47336,13.05105 -4.21612,4.51521 -10.3677,-3.66172 -15.39084,0.0557 -4.65793,2.04935 -11.93799,1.76566 -11.66769,8.68435 0.0359,4.68107 -1.46835,9.2924 -6.99565,7.16323 -6.12819,-0.62778 -12.49239,-2.8425 -17.15606,-6.92768 -4.21555,-4.04636 -8.36472,-8.49498 -13.59905,-10.92556 -3.99203,-3.53432 -7.62549,-7.71033 -13.02086,-9.21718 -5.53932,-3.26619 -12.2138,-4.22014 -17.09687,-8.54581 -4.1554,-2.24606 -12.98929,-8.25867 -5.584,-12.20058 5.76913,-2.0044 13.10958,-8.73374 4.98394,-13.46233 -2.49003,-5.13952 10.23583,-3.03714 8.90841,-7.03196 -4.59657,-3.64881 -11.57467,-4.71814 -13.60472,-11.23335 -3.38566,-5.62651 -9.38404,-9.11904 -15.44837,-11.19501 -2.1794,-1.58236 -5.14685,-3.97384 -5.42631,-6.78625 z" id="path27387" style="fill:#9f673a;fill-opacity:1;fill-rule:evenodd;stroke:none" inkscape:connector-curvature="0"/><path d="m 579.28571,483.07648 c -11.87756,-2.11248 -18.1791,15.07048 -8.5996,22.60893 -5.50445,8.37964 -7.32696,-16.48719 -10.68611,-1.18037 8.13607,5.74975 4.66768,13.308 -2.16885,4.89208 -12.23036,-1.8594 -2.19823,23.27156 -18.70069,18.5305 5.61605,9.10511 9.53556,22.60209 -7.30168,19.01229 -14.79019,1.85033 -10.10134,-19.23885 -22.54307,-19.57773 -8.44445,-10.75753 -18.77741,4.92656 -27.40894,5.55548 1.29348,9.33451 -8.26946,8.05786 -0.15149,16.52693 -16.94473,1.32593 8.60866,31.1026 -12.43957,28.63188 -10.9677,17.40869 -20.35303,-10.9461 -6.85098,-17.13813 -8.22788,-9.50441 -30.56878,3.18634 -40.74899,-8.96162 -8.17654,-6.89964 -30.86801,-23.20259 -13.49907,-29.81928 2.22254,-17.53633 -16.20125,-22.82417 -22.93395,-34.30484 4.20515,-11.87416 -0.54208,-14.0647 -10.96701,-9.77613 -15.39544,3.17056 -30.37814,5.01764 -46.44897,5.22452 -12.91272,0.43445 -15.17913,12.64405 -13.11696,17.63262 -14.08166,5.27876 -0.0393,22.85138 -11.74108,29.69767 5.90665,20.03157 -19.29857,24.95694 -20.33221,41.95214 -5.81657,7.12338 -7.4718,16.02183 -9.65607,1.36908 -1.34228,-14.40278 -5.62321,11.47979 -9.05458,14.55543 -10.9012,0.5294 -18.54856,20.39455 -31.22085,7.1216 -9.04938,-7.31315 -22.05683,-7.75714 -31.48877,-12.92014 0.65798,9.49895 12.40757,15.03213 0.26485,21.75956 -6.48622,22.28784 21.78857,11.37474 32.06391,18.92774 10.22739,-8.58034 30.2149,-0.1176 33.45529,12.00654 -0.49332,13.2461 13.99181,20.54502 20.95469,8.40348 2.15249,8.0513 8.09875,9.87456 10.47496,2.70865 11.38224,13.23375 29.58782,6.44415 44.41722,10.13254 9.84418,8.14899 37.3597,-1.94611 36.20518,13.5772 -8.02321,5.97602 -7.76541,16.82005 -21.02347,13.72427 -5.61521,10.7235 17.75085,10.09606 24.24193,6.13434 7.34124,3.23221 -17.69634,5.46578 -1.8686,10.09245 8.30898,19.08358 17.30894,-15.81377 9.1249,-23.29253 -1.133,-16.76637 28.69378,-9.03479 40.75606,-13.88046 12.66195,-2.7431 29.30531,-1.77989 38.40627,5.97074 -3.66098,11.57978 3.49748,26.17626 16.3909,15.12884 14.79488,-4.83249 14.98219,-22.59402 31.37691,-25.92716 14.24978,-4.90351 21.99397,-18.79967 31.53492,-28.93103 11.33858,-11.57458 12.52052,-27.53207 18.43847,-41.95236 12.88275,-12.08928 11.43706,23.4077 24.79292,5.1548 3.84735,-12.56993 -2.5209,-26.85356 0.19504,-39.37053 -7.20218,-7.18052 5.1434,-25.77536 6.70562,-7.9131 -0.72708,7.66704 -0.28697,41.17313 9.25826,22.78566 1.2777,-15.35139 3.85985,-30.85191 9.46569,-45.37455 4.17331,-6.94618 3.29329,-38.71151 -4.001,-17.35516 -0.50341,-1.37413 1.12302,-21.86492 -6.06525,-15.2581 2.16114,7.56571 1.38865,25.82788 -4.57419,9.31975 -4.35951,-12.81961 -6.81175,-0.61341 -4.30073,6.08166 -7.29352,0.14817 -3.28882,-18.55453 -13.02871,-10.12389 6.2835,3.24191 9.66521,13.73376 0.56266,6.32065 -9.30995,-8.91819 9.7237,-18.39406 -1.81997,-27.93978 -2.24908,-17.96767 -3.81796,6.79746 0.77073,11.95079 -2.30249,2.88717 -4.51689,-0.24193 -5.11597,-2.49392 z M 400,580.2193 c -11.82344,3.20528 -11.44787,37.01903 -25.89495,20.42709 -11.27528,-2.63356 -18.67396,23.35513 -32.67648,11.00151 -4.02344,-6.7604 0.53044,-15.61563 -8.33888,-19.59467 1.46654,-11.73393 -15.23559,-16.51232 -4.83756,-28.03887 -5.4396,-11.10655 -29.9041,-17.56395 -18.35064,-32.90643 9.85431,-9.56933 -6.08451,-23.85715 8.31592,-33.13852 1.32414,-14.07172 25.13664,-14.1344 36.28575,-9.93762 10.46757,-4.93793 33.97016,-12.90539 24.20755,7.71582 -10.53561,12.772 -4.61585,29.56443 13.43215,22.32886 7.35146,1.07756 7.1009,12.43188 -0.71429,4.28571 -11.63627,2.37452 13.90403,12.49099 0.0531,16.56533 -19.5524,-1.90176 11.46079,19.40663 -8.62457,17.0061 -10.97668,11.11986 17.67982,31.35935 11.63171,12.18182 6.50821,-5.01608 5.53933,-7.21513 2.63559,-12.78731 7.22007,-0.49395 5.36365,-13.93154 9.2251,-1.08139 6.34222,3.4761 9.87696,7.53741 16.62186,6.29415 3.21939,12.51863 7.12319,1.51919 12.00482,1.03177 7.64789,3.97944 23.52362,-2.09117 18.08497,12.54324 10.73801,17.54382 -31.82147,20.67787 -13.79225,4.1751 -6.92087,-11.45392 -16.96275,18.853 -18.24892,-0.78677 -6.98611,-5.03852 -19.8904,2.49756 -19.85036,-7.11977 -0.60891,3.38003 1.52454,6.62114 -1.16966,9.83485 z M 361.42857,443.07647 c -1.95579,-1.91437 4.35954,-5.8744 -3.57143,-7.85715 -2.74996,-0.68749 -4.73629,0.78022 -7.85714,0 -4.71869,-1.17967 -5.70884,-2.50272 -9.28571,-0.71428 -2.92788,1.46394 6.30879,4.97006 6.42857,5 4.61143,1.15286 -0.0834,3.77085 -2.14286,4.28571 -2.46791,0.61698 -5.31834,2.65917 -7.14286,3.57143 -2.63217,1.31609 7.33282,1.55966 7.85715,1.42857 2.95423,-0.73855 5.10896,-2.55448 7.14285,-3.57143 2.04354,-1.02177 5.60074,-0.95457 8.57143,-2.14285 z m -193.57142,82.50001 c 9.98409,1.59156 21.18108,-11.02511 16.13457,-19.09509 -3.80866,-7.44499 -13.72998,-0.31759 -14.65834,4.7984 -7.33867,-1.76363 5.17938,-15.25768 11.24769,-11.69139 11.00574,2.00372 11.0137,17.1121 2.45947,22.35326 -4.11776,3.43363 -9.92561,5.39998 -15.18339,3.63482 z m -31.78572,28.57141 c -3.66818,-13.1056 20.53564,-16.42559 19.45677,-2.18806 0.80021,6.23104 -5.30807,14.74412 -12.54888,11.95572 14.18543,-2.04955 4.92184,-26.05316 -3.74736,-12.78456 l -3.16053,3.0169 0,0 z M 130,590.21932 c -0.55438,-3.7275 -0.94449,-5.71428 -6.42857,-5.71428 -2.95326,0 0.0782,7.22107 0.71428,7.85714 2.67354,2.67353 4.93272,1.76501 5.71429,-2.14286 z m -8.57143,-172.85714 c 3.54332,14.96497 0.65291,41.89671 -12.97312,44.41066 -15.820183,2.27856 -18.729171,-25.00764 -5.70652,-30.52085 17.54213,-1.72791 -8.426079,24.80475 7.97217,22.35285 9.69942,-4.70049 8.26639,-21.23342 9.86513,-30.28651 0.20446,-1.99497 0.45773,-3.98704 0.84234,-5.95615 z" id="path9580" style="fill:#cc8044;fill-opacity:1;fill-rule:evenodd;stroke:none" inkscape:connector-curvature="0"/><path d="m 621.07141,515.93359 c 3.62683,1.99178 5.5172,6.53278 9.13559,7.99275 4.3148,-0.28989 8.89353,-0.62387 12.44986,2.32623 3.59148,2.46464 2.03794,7.24786 2.34314,10.88639 -0.30607,4.40964 1.05979,9.45832 -1.95958,13.20759 -1.91782,4.30623 -4.28462,8.94768 -3.12007,13.79123 1.52241,3.09828 4.292,5.96588 4.01831,9.63076 0.24243,4.34157 -3.43069,7.45983 -5.10569,11.1579 -3.48477,3.03737 -6.86323,6.36726 -8.93104,10.56454 -2.06796,3.80371 -8.79496,3.57945 -8.98221,8.48812 -1.1436,3.77948 0.36236,7.46842 0.50885,11.24022 -1.53645,4.74429 -6.4246,-2.2e-4 -9.25852,-0.62835 -3.61692,0.38939 -8.48959,0.64986 -10.59535,4.00873 -3.82772,4.65195 -7.23874,-1.87566 -10.50327,-3.73752 -2.36248,-3.07999 2.23536,-7.65368 -2.45188,-10.07457 -2.1382,-3.55215 0.076,-7.48055 0.84081,-11.08649 2.91804,-3.11093 1.36557,-7.92087 2.26955,-11.81044 0.0523,-6.19239 0.17328,-12.40928 -0.0608,-18.59274 -1.83394,-3.76781 -0.33525,-7.92119 -1.55286,-11.77355 -0.86896,-3.66359 -1.88448,-7.5741 -0.8305,-11.30507 1.97327,-1.39915 6.29259,-2.52956 8.22503,-1.51335 0.91436,7.11502 0.63522,14.30603 0.75934,21.46772 0.56922,3.31473 -0.15752,8.56327 3.71371,9.87894 4.77996,1.64592 5.43722,-4.45982 5.87334,-7.69045 0.78208,-4.53155 1.31084,-9.09184 1.07143,-13.70536 -0.52581,-4.32828 1.94603,-8.12148 2.14286,-12.36607 0.11548,-4.36847 2.64121,-7.58874 4.56536,-11.27357 2.29158,-2.52148 -0.69579,-8.53693 4.11471,-8.4474 0.46839,-0.15301 0.86514,-0.45329 1.31991,-0.63619 z" id="path16995" style="color:#000000;fill:url(#radialGradient16998);fill-opacity:1;fill-rule:evenodd;stroke:none;stroke-width:1px;marker:none;visibility:visible;display:inline;overflow:visible" inkscape:connector-curvature="0"/><path d="m 412.14285,243.79076 c -17.93944,2.72522 -36.16235,3.84336 -54.3175,3.54073 -7.45342,-3.45156 -22.04156,1.64606 -12.10885,10.26659 4.44517,8.32507 17.07476,18.90635 9.37991,27.10027 11.2426,6.99484 20.97713,16.26958 34.99094,17.5189 5.43453,-3.59888 19.24505,1.84305 8.88806,6.72407 -11.0546,6.3763 -19.29784,-9.02862 -30.27149,-1.0933 -8.52654,2.26602 -18.34018,-8.42 -21.98233,0.46169 -16.45628,-3.45673 -3.28944,14.61845 5.57612,14.54284 10.51576,8.03099 24.70347,4.24306 35.29169,12.0797 7.5308,9.31945 13.7424,19.62301 24.58452,25.87448 0.97513,4.62484 -11.69918,2.3909 -5.74535,10.84117 4.9679,12.24814 -19.55602,-9.30447 -17.80086,3.32325 7.80785,3.89189 27.95597,8.89428 16.71435,20.10959 -5.91256,4.67634 -12.60671,26.54413 -0.11203,25.02498 3.43484,-8.5293 7.98335,-16.34403 14.29365,-12.29182 1.8376,-5.3371 1.40278,-17.68307 5.00145,-5.36393 4.50937,9.8183 5.2541,25.0919 -5.23942,31.34078 -8.67717,7.49463 6.98005,26.59533 17.14286,18.57143 11.84512,-0.66117 10.90291,-16.67961 17.40903,-20.41027 3.0384,10.96326 -13.42188,28.19968 5.44811,31.12456 3.25417,5.96774 10.4842,6.53918 14.13798,7.43298 2.29477,10.38321 6.96897,29.34647 20.25814,16.42264 6.83942,-4.03677 11.16586,-9.42296 19.71859,-6.51827 9.10361,-3.80586 6.40013,-21.45888 19.87091,-17.02675 7.97265,8.50865 -4.00416,-23.04832 9.89744,-14.07308 10.66624,5.69572 2.31887,-4.65499 -2.45448,-6.95181 3.7923,-2.96484 10.39947,-5.47558 2.85714,-10.71428 -9.44653,-2.29557 -12.71546,-8.74923 -6.27571,-16.64184 1.69714,-8.66418 -1.36019,-18.17531 3.41857,-26.21531 4.01594,-8.72905 -1.82454,-13.36949 -8.0147,-17.47436 5.52625,-7.92 19.6078,2.12336 26.3919,-6.60548 -4.44913,-4.18994 -0.94723,-9.36619 -1.42951,-14.18057 -12.78133,-2.88491 2.31537,-20.80857 -12.83819,-23.0995 C 534.85373,322.93406 526.0881,315.72423 515,313.79075 c -10.98273,0.69483 -20.37447,-4.07666 -27.14286,-12.85714 -6.99182,-10.9087 -21.69524,-11.27074 -31.38254,-19.67565 -9.67087,-6.10132 -25.36313,-12.34395 -23.55223,-25.94057 -6.69952,-4.16289 -13.25853,-8.92903 -20.77952,-11.52663 z" id="path2124" style="fill:url(#radialGradient3585);fill-opacity:1;fill-rule:evenodd;stroke:none" inkscape:connector-curvature="0"/><path d="m 406.42856,215.93361 c 5.54829,-1.65274 10.23563,2.26942 15.67319,2.38205 7.83815,1.56061 14.46853,6.81039 19.36702,12.94585 3.86877,2.95039 8.35174,10.30382 1.49579,12.17977 -2.09847,3.52018 -6.8221,5.7218 -2.51378,9.83942 2.00201,6.60987 -7.9502,0.82752 -9.44277,5.12412 -3.55654,5.68749 -9.80647,-5.25974 -13.50801,-0.32835 1.00925,1.48623 7.34096,5.65409 2.38852,6.92188 -4.76915,0.96471 -9.18078,-6.33034 -12.81361,-4.33741 3.30758,6.06442 -5.1435,1.79576 -7.81862,1.82401 -0.98035,5.78041 -7.5754,0.3543 -10.68486,-0.83705 -3.93214,-0.67707 -10.4062,-3.64742 -12.5,1.42857 -3.81672,4.46634 -10.09404,2.33978 -12.15578,-2.50025 -3.40361,-1.13749 -6.0767,7.50265 -8.55954,2.84358 1.69163,-5.50596 -3.18478,-8.74012 -8.15305,-8.18364 -3.5147,-2.62525 -5.83174,-6.82662 -11.13163,-6.08826 -5.35801,-0.7683 -10.5855,-2.97299 -16.07143,-2.14286 -3.67449,-0.77766 -0.27687,-7.32975 -5.06429,-8.45715 -6.0572,-4.17875 -1.28118,-11.0051 4.36272,-12.17029 3.35365,-0.49873 -0.42227,-6.25608 4.63014,-6.15828 5.82032,-1.79034 11.43142,-5.22877 17.74307,-4.6582 7.39056,-0.37409 14.57928,-2.51519 22.03372,-2.12751 7.71404,-0.1784 15.49235,0.46373 23.14687,-0.54768 6.06512,0.64862 12.62022,-0.39876 18.17268,2.64563 l 0.64447,0.21706 0.75919,0.18499 -10e-6,0 z m 12.5,3.92857 c 4.63414,1.03969 8.17046,4.35777 12.50001,6.07143 2.4122,2.23726 4.1887,5.01583 7.6278,6.08919 2.26711,0.95678 6.6247,5.73538 2.47623,6.91961 -3.82101,1.10337 2.27392,2.67328 -0.8155,4.13198 -2.53853,3.41093 -6.27908,5.41967 -10.42262,3.2909 -3.96535,-0.25766 -7.70835,-1.30237 -11.42203,-2.70097 -5.37403,-0.69851 -10.80233,-0.62444 -16.2017,-0.23472 -4.29369,-0.18617 -8.5425,0.3694 -12.75443,1.08161 -7.49618,0.0102 -14.99982,-0.0192 -22.49523,0.071 -3.44255,-0.57268 -6.90499,-0.93205 -10.39629,-0.45856 -4.80293,-0.14113 -9.64556,-0.35276 -14.40721,-0.94913 -4.13887,-0.12823 -5.66275,-4.74811 -4.86292,-8.2296 2.3503,-5.71515 7.92013,-9.45466 13.4259,-11.80133 3.84663,-1.61827 7.81908,-2.37056 11.94173,-2.82007 4.02286,-0.83351 8.3324,-0.035 12.16661,-1.87283 3.35075,-1.45605 6.91148,-1.85677 10.46259,-2.48637 6.26618,0.0529 12.62644,-0.42771 18.80736,0.73607 3.75984,0.83128 7.25826,2.42577 10.96647,3.38709 1.39343,0.71267 2.07173,0.53993 3.40323,-0.22528 z" id="path5041" style="fill:#5c4533;fill-opacity:1;fill-rule:evenodd;stroke:none" inkscape:connector-curvature="0"/><path d="m 344.28571,225.57648 c -0.27864,1.4211 -2.74956,1.17905 -3.83509,2.04857 -2.23953,1.40766 -0.10405,3.70111 1.86354,3.57133 0.85718,0.17106 3.30679,0.34076 2.96088,1.10678 -2.02891,0.89417 -4.19884,0.2313 -6.08821,-0.60833 -2.1562,-0.48716 -2.92492,1.80678 -2.73606,3.51211 -0.0768,2.05812 -0.0359,4.3271 1.16034,6.0855 1.61711,1.18493 3.78083,1.29155 5.35458,2.61962 1.73575,0.54787 3.41844,1.28253 5.17824,1.7348 1.81474,0.2442 3.68141,0.0249 5.47307,-0.2209 1.90141,-0.83179 3.85585,-1.50154 5.82266,-2.14007 1.28221,-0.60261 3.42043,-1.45378 4.44036,-1.07826 -1.58963,1.26851 -4.00713,1.08708 -5.18536,2.91368 -1.18812,1.15451 -0.8355,3.24631 1.10928,2.89889 2.32036,-0.0613 4.90929,0.42989 6.91925,-1.06187 0.99957,-0.98421 -1.47366,-3.18932 -0.61279,-3.49577 1.29869,1.01439 1.4712,4.47758 3.80463,3.04066 2.09579,-0.71357 4.37493,-0.14941 6.48332,-0.74359 1.64146,-1.07718 1.27764,-3.40632 2.13475,-5.00839 1.02172,-3.11051 0.56612,-6.81624 -1.82267,-9.19702 -3.46098,-3.49555 -8.42642,-4.78133 -13.11434,-5.6609 -5.96744,-0.9824 -12.07527,-1.23533 -18.09581,-0.64049 -0.36755,0.10082 -0.93614,0.0375 -1.21457,0.32365 z" id="path5783" style="fill:#deac9d;fill-opacity:1;fill-rule:evenodd;stroke:none" inkscape:connector-curvature="0"/><path d="m 408.21429,217.71931 c 3.93329,2.66285 9.16509,1.15717 13.03061,3.51805 2.21639,1.64933 -4.25061,4.09359 0.85959,3.65971 3.57527,-1.06489 3.46195,1.30361 1.48618,3.33914 1.5912,2.58321 6.46008,0.4805 4.66639,5.21198 0.39777,2.7363 5.9065,4.61528 2.34945,7.96032 -3.10836,0.31864 -8.75638,-3.80136 -9.11275,1.71466 -4.19801,2.83172 -9.34593,1.27644 -13.95453,2.37656 -5.18426,0.73119 -10.24411,-1.33268 -15.44304,-0.52148 -6.00507,0.86832 -12.11955,0.55892 -18.10337,-0.21912 -0.73668,-3.11455 -0.98684,-6.45387 1.66731,-7.99765 1.30995,-3.53031 -1.94045,-3.73043 -2.82734,-0.77221 -3.13078,2.6525 -7.77714,3.34691 -11.62526,2.12413 -4.71756,-1.26877 -8.72611,2.10932 -13.17669,2.74807 -5.00776,-2.74526 3.43608,-6.29342 2.91809,-9.8663 -0.46697,-4.66014 -11.80878,-0.88739 -7.74096,-6.42031 4.19255,-1.24958 7.64398,-4.03767 11.88504,-5.11432 4.87349,-0.0674 8.84916,-2.0725 13.52372,-2.85962 5.221,-0.37141 10.43387,-0.40435 15.64421,0.20161 5.69707,-0.19564 11.39387,0.39292 17.09199,0.26905 2.29048,0.18038 4.56253,0.57031 6.86136,0.64773 z m -86.25,33.75 c -3.18159,1.14302 -8.9205,-0.37424 -10.43401,2.70595 3.5978,0.82095 9.64102,4.31318 12.21849,0.7838 -0.43073,-1.11342 -0.19286,-3.31673 -1.78448,-3.48975 z m -9.82144,-17.32141 c -5.4929,-1.15639 -0.9191,5.6032 2.36742,4.39056 3.03472,5.02774 -5.56549,4.66463 -8.59565,5.74648 -2.30878,0.17428 -9.47692,2.58704 -4.2327,4.07727 2.11806,-1.14417 6.13567,-2.17613 5.90736,-4.00605 -0.34505,2.83599 4.75279,1.95711 0.30825,3.71426 1.37136,2.36116 9.57485,0.99122 7.89376,-3.71296 1.78964,-1.59625 10.50133,-0.46779 4.7077,-3.20975 -4.53163,-0.0265 -0.895,-5.66025 -5.74293,-5.35388 -0.95775,-0.43138 -1.57015,-1.37926 -2.61321,-1.64593 z m 4.28571,-7.5 c 0.37691,2.76958 -4.40499,4.90982 -6.57817,4.34316 2.68383,-2.33366 6.70491,-5.30032 1.22104,-6.84316 -5.68844,-1.40264 8.67939,-4.02994 3.21428,-5 -4.32157,-2.31621 7.22002,-2.1613 1.93044,0.49358 4.54022,0.0835 8.17248,-3.23947 12.53385,-4.06501 4.15165,-1.10777 8.48389,0.56817 12.41041,-1.59476 4.50395,-0.11774 8.96219,-2.23618 13.31808,-0.22049 4.71691,-0.8786 9.48653,-1.3746 14.3608,-1.0419 6.0511,0.32589 12.33963,-0.79814 18.21387,0.96725 2.12512,1.29177 8.40512,2.39431 2.72974,2.00952 -4.71398,-0.1207 -9.33507,-1.31596 -14.06861,-1.19105 -5.17942,-0.16362 -10.3488,-0.54688 -15.53572,-0.53572 -4.07564,1.691 -8.67368,0.6721 -12.99107,0.71429 -2.2045,-0.57539 -7.00029,1.35399 -2.00893,1.96429 6.6003,0.47808 -5.06077,2.65355 -4.65604,-0.6238 -3.62713,-1.23439 -7.36785,2.95844 -11.13242,3.70429 -4.76175,0.82626 -10.4274,2.63917 -12.96154,6.91951 1.1135,0.33757 8.68185,-3.40497 7.30631,-0.83273 -1.81048,0.46642 -6.83142,4.37044 -7.30632,0.83273 z m 80.71429,-13.75 c 4.09684,0.34506 9.59485,-1.1692 12.53777,2.13295 -3.49643,2.27364 -7.62324,-0.79944 -11.04611,-1.92058 l -0.59879,-0.0338 -0.89286,-0.17857 -10e-6,0 z" id="path5781" style="fill:#fdf5f5;fill-opacity:1;fill-rule:evenodd;stroke:none" inkscape:connector-curvature="0"/><path d="m 408.92857,233.43361 c -1.92068,-0.28679 -2.91412,0.83206 -3.75,1.25 -0.81588,0.40794 -1.42809,0.80333 -2.32143,1.25 -0.86677,0.43339 -1.60557,0.60652 -2.32142,0.89286 -0.83458,0.33383 -1.07143,0.40258 -1.07143,1.60714 0,1.05018 1.30611,1.53189 2.32143,1.78571 0.86998,0.2175 1.98419,0.5407 2.67857,0.71429 1.30841,0.3271 1.62676,1.07143 3.03571,1.07143 1.12869,0 2.02608,-0.0309 2.67857,-0.35714 0.65473,-0.32737 1.46072,-0.7384 2.14286,-1.25 0.81438,-0.61079 1.24837,-0.71103 1.78571,-1.78572 0.38679,-0.77357 0.53572,-1.48173 0.53572,-2.5 0,-1.19144 -0.26075,-1.51074 -0.89286,-2.14286 -0.32825,-0.32825 -1.47936,-0.65039 -1.96428,-0.89285 -0.86385,-0.43193 -1.41902,-0.70155 -1.96429,-1.42857 -0.51455,-0.68607 -0.63916,-1.14984 -1.25,-1.96429 -0.42249,-0.56333 -1.56506,-1.05039 -1.96429,-1.25 -0.78943,-0.39472 -2.13028,-0.35714 -3.03571,-0.35714 -1.16899,0 -2.31204,-0.17857 -3.39286,-0.17857 -0.58514,0 -1.66262,-0.7559 -2.32143,-1.25 -0.57939,-0.43455 -1.35281,-0.99568 -1.96428,-1.60715 -0.6902,-0.6902 -0.62712,-1.20641 -1.78572,-1.78571 -1.09912,-0.54957 -1.48578,0.29646 -2.32142,0.71428 -0.86414,0.43207 -1.44343,0.90029 -2.14286,1.25 -0.71055,0.35528 -1.07061,0.71408 -1.78572,0.89286 -0.79573,0.19893 -1.35121,0.51638 -2.14285,0.71429 -0.94092,0.23523 -2.23621,0 -3.21429,0 -0.42342,0 -1.53737,-1.06374 -1.78571,-1.25 -0.65488,-0.49116 -1.00258,-0.75516 -1.42857,-1.60715 -0.78437,-1.56872 -3.71004,-1.53126 -5,-1.60714 -0.82096,-0.0483 -1.67174,0.81155 -2.32143,1.07143 -0.95626,0.3825 -2.15961,0.35714 -3.21429,0.35714 -0.96145,0 -1.82415,0.18818 -2.5,0.35715 -0.83395,0.20848 -0.93796,0.68091 -1.78571,0.89285 -0.79482,0.19871 -1.65703,0.2928 -2.14286,0.53572 -0.85518,0.42759 -0.784,0.97116 -0.53571,1.96428 0.27871,1.11488 1.32123,1.78558 2.32142,2.5 0.72725,0.51946 1.42141,1.07143 2.5,1.07143 1.50309,0 2.78816,0.3196 3.92858,-0.53571 0.74087,-0.55566 1.03958,-0.94406 1.25,-1.78572 0.22386,-0.89547 1.00912,-1.35792 1.25,-2.32143 0.20225,-0.809 0.72362,-1.08077 1.25,-1.60714 0.57511,-0.57512 1.97061,-0.0861 2.5,0.17857 0.75337,0.37669 1.13269,0.59698 1.60714,1.07143 0.70003,0.70003 1.23168,0.79442 2.14286,1.25 0.91019,0.4551 1.58864,1.06218 2.32142,1.42857 0.8413,0.42065 1.74382,0.70591 2.67858,0.89286 1.06252,0.21251 2.58247,-0.0165 3.39285,-0.17857 1.03581,-0.20716 1.54043,-0.53572 2.67857,-0.53572 0.93303,0 1.83499,-0.0323 2.67858,0.17858 0.99074,0.24768 1.95456,0.53085 2.67857,0.89285 0.84404,0.42202 0.89285,0.94393 0.89285,1.96429 0,0.92023 1.0621,1.41924 1.60715,1.96428 0.67085,0.67086 2.00108,-0.0368 2.32143,-0.35714 0.5665,-0.56651 1.15086,-0.99877 1.60714,-1.60714 0.40898,-0.54531 1.55951,-0.35714 2.32143,-0.35714 1.11543,0 2.55501,0.99459 3.21428,1.78571 z" id="path5875" sodipodi:nodetypes="csssssssssssssssssssssssssssssssssssssssssssssssssssssssc" style="fill:#fddae0;fill-opacity:1;fill-rule:evenodd;stroke:none" inkscape:connector-curvature="0"/><path d="m 376.42857,245.93362 c 0.56091,-0.92189 2.59039,-4.64507 3.21429,-5.89286 0.59601,-1.19202 1.70562,-1.92424 2.85714,-2.5 1.31403,-0.65701 2.59441,-1.09503 3.92857,-1.42857 2.01797,-0.5045 5.39971,-2.87843 6.78572,-3.57143 1.26813,-0.63407 3.36284,-0.35714 5,-0.35714 2.68736,0 -0.1178,1.13032 -1.42858,1.78571 -1.35492,0.67746 -2.6204,1.48877 -3.92857,2.14286 -1.30197,0.65098 -3.19342,1.23957 -4.28571,1.78571 -1.52861,0.76431 -2.27422,1.55994 -3.21429,2.5 -0.97192,0.97193 -1.63513,2.19884 -2.14285,3.21429 -0.80949,1.61898 -0.33812,2.5 -2.85715,2.5 -0.84966,0 -2.96408,0.20722 -3.92857,-0.17857 z m -21.25,-21.60715 c -1.82219,0 -3.04127,0.006 -4.46428,1.42857 -0.40503,0.40503 5.80424,0.09 7.5,1.78572 0.59524,0.59524 -2.44048,-2.61905 -3.03572,-3.21429 z m 3.75,4.46428 c -6.21241,0.44965 -8.04409,5.87612 -0.71428,9.82144 -2.20624,-4.23392 -5.24887,-6.48621 0.71428,-9.82144 z m 6.06455,0.99341 c -4.8428,0.35052 -6.27066,4.58065 -0.5568,7.65617 -1.71985,-3.30049 -4.09169,-5.05624 0.5568,-7.65617 z m 18.49024,-8.4936 c 3.75168,2.72731 2.67082,6.56111 -3.60471,5.90474 3.14743,-1.54586 6.00631,-1.62513 3.60471,-5.90474 z m 24.38939,-1.006 c -4.34293,-0.39971 -5.07212,5.24225 0.51804,10.5836 -1.99986,-4.92222 -4.38433,-7.8081 -0.51804,-10.5836 z" id="path5787" sodipodi:nodetypes="csssssssssssccssccccccccccccc" style="fill:#1a260e;fill-opacity:1;fill-rule:evenodd;stroke:none" inkscape:connector-curvature="0"/><path d="m 577.14288,297.36218 c -0.77245,4.41338 3.90624,7.81954 4.28131,12.23931 1.79186,2.19259 2.78885,7.86589 -1.65163,5.54243 -3.70045,1.20535 -0.2447,6.84826 1.26088,9.11538 2.84031,3.72885 3.73566,8.70259 3.02256,13.22914 -2.67563,2.09671 -7.73157,1.05992 -8.60326,5.40055 -0.74331,3.62503 -1.08094,7.95076 1.66605,10.86663 3.45317,3.79095 -0.19146,7.91561 -3.54736,10.03513 -3.21059,0.45837 -9.2316,-1.80357 -8.73426,3.99199 0.3445,4.48701 -1.02998,8.17724 -3.8465,11.43439 -0.92968,3.9894 1.73384,7.88408 1.66377,11.5544 3.81481,0.99153 8.17201,1.22267 10.75625,4.74322 3.41533,4.02041 7.33523,7.70655 12.3036,9.70457 3.29468,3.24548 9.26265,0.80455 7.98422,-4.05513 0.13353,-3.86122 -5.0607,-8.45759 -0.89852,-11.52285 3.70445,-0.84892 7.76915,-2.64191 6.48572,-7.27916 -0.88937,-3.71601 -1.04985,-8.23173 3.89774,-8.50575 3.88386,-3.60386 -3.67952,-6.96679 -3.69489,-10.91462 0.56397,-4.20906 -3.30798,-9.81176 0.20513,-12.91907 4.14995,-0.8889 6.66586,-4.86182 3.48322,-8.38865 -2.57752,-3.22472 -5.74757,-6.87618 -4.3635,-11.36741 2.25909,-4.84541 -4.53107,-6.56112 -7.36397,-9.0049 -3.88798,-3.898 -1.95499,-10.25058 -5.05797,-14.6225 -1.37706,-3.86837 -5.52037,-5.01205 -7.99248,-7.82244 -0.40482,-0.49642 -0.80276,-1.00066 -1.25611,-1.45466 z" id="path8075" style="color:#000000;fill:url(#radialGradient8809);fill-opacity:1;fill-rule:evenodd;stroke:none;stroke-width:1px;marker:none;visibility:visible;display:inline;overflow:visible" inkscape:connector-curvature="0"/><path d="m 398.92856,420.93362 c 2.73726,2.73357 4.33922,7.34681 2.6442,11.03381 -3.52164,2.26037 -2.9625,-4.13615 -4.56948,-3.99881 -1.09149,4.7071 -0.48859,9.61898 -0.21757,14.39356 -1.18946,3.47875 -6.75367,1.01789 -5.05351,-2.55364 -0.30649,-4.10354 3.36834,-7.29046 2.9137,-11.45709 0.88038,-3.78134 -2.71672,-5.00678 -5.36019,-2.77498 -4.30737,0.88917 -2.42002,-5.52167 1.27718,-4.18808 3.23208,-0.0132 0.18055,-5.5793 4.41912,-3.84929 1.93285,0.18346 3.49216,1.50467 3.94655,3.39452 z m -21.78571,4.28571 c 3.07237,1.5214 9.52004,1.20882 10.44685,4.35058 -2.38112,1.32616 -3.07876,3.89203 -3.29942,6.17695 -1.97591,-1.91711 -3.72645,-8.68047 -6.84697,-3.83299 -3.50406,3.43828 1.13033,7.7205 4.96134,6.44772 3.26475,-2.01522 0.43255,4.4974 4.24491,2.57591 5.60137,0.30769 -1.0232,3.56196 -3.43527,3.2104 -2.58715,2.69213 -4.57613,6.38321 -9.09117,6.03056 -3.80154,-0.80186 -7.91972,-1.89851 -11.7706,-0.41805 -3.12879,2.23629 3.09454,6.62138 5.86177,4.38749 2.94256,-1.7114 6.1371,-2.87506 9.20142,-4.34455 3.36376,-1.9305 7.74789,-1.70982 11.36417,-0.68828 3.14766,2.00359 7.73305,2.38204 9.55643,6.00043 2.38568,3.77089 7.77593,1.62054 11.41312,2.86515 3.34213,1.2948 6.5512,4.27128 5.13137,8.2141 -0.49239,4.05061 0.46447,8.14827 0.1192,12.23886 -1.30324,3.45661 -5.04273,5.51345 -6.21652,9.24623 -2.10741,3.04613 -5.73142,4.23295 -8.77142,6.02783 -0.46241,2.8539 -2.29519,6.83029 -5.02901,2.82757 -0.97754,-1.86684 -1.39247,-5.7817 -3.91162,-2.74449 -4.19074,1.78714 -5.73218,-4.81107 -1.24363,-5.38662 3.01544,-3.02964 3.66501,-7.77616 1.24363,-11.39909 -1.37568,-4.10522 -5.00493,-5.39355 -8.39087,-2.60874 -4.31928,-1.42096 4.10368,-7.94724 -1.10268,-5.09516 -3.20284,2.23732 -6.62053,4.01553 -10.04746,5.88853 -1.41556,0.41137 -4.75512,3.59277 -3.10741,0.029 3.33849,-1.38836 6.82491,-2.67156 9.59581,-5.13471 2.08185,-2.06738 0.25144,-3.98144 -1.94739,-2.00748 -3.78379,2.20829 -7.63207,4.23748 -11.28956,6.57132 -1.71243,1.10543 -5.37993,2.03893 -3.3533,-1.21418 3.2525,-1.90232 6.9246,-3.2963 9.96824,-5.63326 2.43311,-0.58455 2.88304,-1.98035 -0.0541,-1.30283 -2.91514,0.38623 3.11068,-5.13069 -1.37393,-4.89682 -3.71544,0.13637 -6.27579,-2.91372 -9.77005,-3.20467 -3.59192,0.38724 -7.32749,-0.58698 -10.03959,-2.99393 -3.73337,-2.01055 -1.65327,-7.01178 2.23075,-7.36444 3.21925,-1.50708 6.49501,-2.87986 9.49992,-4.77316 3.94462,-1.3791 7.92986,-3.81814 12.29128,-2.81975 1.63038,0.47631 5.01648,1.01518 2.14838,-1.10758 -1.84061,-3.07033 -4.6861,-5.20797 -7.33983,-7.23101 -0.83911,-4.62667 4.50434,-6.5952 8.15324,-6.88684 l -10e-6,10e-6 z m 31.07144,20.35715 c 3.92939,-2.07887 7.62629,1.13421 10.80292,3.07777 2.38421,1.05515 2.90378,8.36435 -0.21019,4.52352 -1.8799,-3.37092 -4.97831,-6.0885 -8.7976,-6.92695 -0.68843,0.21497 -1.26115,-0.36687 -1.79513,-0.67434 z m -5,2.5 c -2.23254,0.4704 -7.87032,-0.93423 -8.26532,0.64585 2.18217,0.97531 7.3709,2.3821 8.39461,0.1317 l -0.12929,-0.77756 0,1e-5 z m -37.85714,17.5 c -1.37434,-0.0473 -10.26602,-0.55534 -4.64286,2.14284 2.02911,0.7681 4.05623,0.0906 4.64286,-2.14284 z m -8.57144,15.71426 c -3.34201,1.98677 -4.11523,-1.59582 -2.58491,-3.83362 -1.23537,0.98079 -8.03137,2.41604 -4.30639,4.13268 0.73056,2.83547 7.11544,3.57859 6.8913,-0.29906 z m 23.57144,-26.07141 c -1.29513,1.18011 -3.03303,1.79303 -4.77585,1.78354 -0.8874,0.051 -1.75816,-0.13783 -2.60846,-0.36421 -0.73141,0.0722 -1.46273,0.7722 -1.4324,1.54487 -0.0232,1.50319 0.30397,2.99428 0.68495,4.43974 0.52797,1.28955 1.99951,1.66429 3.13175,2.23891 1.4251,0.77227 3.04591,1.1431 4.66519,1.07359 0.86591,-0.003 1.87416,0.16245 2.56641,-0.4949 0.99292,-0.81953 1.90433,-1.9021 1.98975,-3.24325 0.11714,-1.35244 0.19553,-2.8537 -0.66373,-4.00463 -0.29949,-0.71886 -1.43891,-1.1296 -1.39756,-1.87368 0.72508,-0.71788 1.73522,-1.0636 2.67534,-1.41062 0.77844,-0.15873 1.23252,-0.87903 1.8292,-1.33401 0.004,-0.63895 -1.24934,-0.17254 -1.70827,-0.16718 -1.68422,0.36318 -3.4111,0.80187 -4.87255,1.74755 l -0.0838,0.0643 10e-6,10e-6 z" id="path8820" style="opacity:0.79999994;fill:#553c2c;fill-opacity:1;fill-rule:evenodd;stroke:none" inkscape:connector-curvature="0"/><path d="m 380.35714,459.1479 c -2.01264,0.0383 -2.35745,1.21551 -2.85714,3.21428 -0.65847,2.63387 1.14184,2.85714 3.21429,2.85714 2.00237,0 1.78571,-1.62182 1.78571,-3.57142 0,-1.13178 -0.97459,-1.56539 -2.14286,-2.5 z" id="path9576" style="opacity:0.79999994;color:#000000;fill:#553c2c;fill-opacity:1;fill-rule:evenodd;stroke:none;stroke-width:1px;marker:none;visibility:visible;display:inline;overflow:visible" inkscape:connector-curvature="0"/><path d="m 227.85714,612.00504 c -2.22399,0 4.27098,1.24632 6.42857,1.78571 2.20114,0.55029 4.07106,0.78553 6.07143,1.78572 2.19451,1.09725 5.148,1.68114 7.5,2.85714 3.11006,1.55503 6.42487,2.28423 9.64286,3.57143 3.62888,1.45155 7.85807,2.50019 11.42857,3.21428 2.47352,0.49471 4.94469,1.86118 7.5,2.5 2.08213,0.52054 4.20201,1.74387 5.71429,2.5 1.24627,0.62314 2.62928,1.10375 3.92857,1.42858 1.98261,0.49565 -2.9595,1.07142 -3.57143,1.07142 -1.43399,0 -3.56929,-1.42643 -4.28571,-2.14285 -0.81005,-0.81005 -4.17699,-1.19564 -5.35715,-1.78572 -1.59769,-0.79884 -4.16907,-0.83453 -6.07143,-1.78571 -1.95915,-0.97958 -3.7396,-1.51266 -5.71428,-2.5 -1.99724,-0.99862 -3.96983,-1.26032 -6.07143,-1.78572 -1.94656,-0.48663 -3.51639,-1.32552 -5.35714,-1.78571 -1.73319,-0.4333 -3.82714,-1.37785 -5.35715,-2.14286 -1.81119,-0.9056 -3.35271,-1.09911 -5,-1.42857 -1.38006,-0.27601 -3.36402,-0.66243 -5,-1.07143 -1.6882,-0.42205 -3.48358,-0.78161 -4.64285,-1.07143 -1.54248,-0.38561 -3.09739,-0.68506 -4.64286,-1.07142 -2.1187,-0.52968 -2.85714,-0.64234 -2.85714,1.78571 0,2.24946 -0.57703,2.5 -2.85715,2.5 -2.16292,0 -0.73363,-2.81844 -0.35714,-3.57143 0.60177,-1.20354 2.74022,-2.44154 4.28572,-3.21428 0.93952,-0.46976 3.87064,0.2027 4.64285,0.35714 z m 12.14286,-7.5 c 0.73848,-0.36924 3.94675,0.62954 5.71429,1.07143 2.07599,0.519 3.97598,1.00948 6.07142,1.42857 2.15618,0.43123 4.35924,0.55409 6.42858,1.07143 2.03479,0.50869 4.01314,0.65977 6.07142,1.07143 1.89164,0.37832 3.85102,1.31989 5.71429,1.78571 1.62729,0.40682 3.31126,1.00639 5,1.42857 2.24489,0.56123 3.27519,1.26523 5.35714,1.78572 2.0621,0.51552 2.74198,1.07142 0,1.07142 -1.93878,0 -3.94331,-0.98582 -5.71428,-1.42857 -2.24794,-0.56198 -4.35106,-0.90919 -6.42857,-1.42857 -2.06005,-0.51501 -3.28239,-0.99917 -5,-1.42857 -1.63834,-0.40958 -3.0145,-1.11077 -4.28572,-1.42857 -1.69336,-0.42334 -3.36787,-0.39554 -4.64286,-0.71429 -1.8185,-0.45462 -3.42235,0.0373 -5,-0.35714 -1.41452,-0.35363 -2.61219,-1.09948 -3.92857,-1.42857 -2.4125,-0.60313 -3.55106,-0.2424 -5.35714,-2.5 z m 45.35714,-8.92857 c -1.57087,-0.39272 3.07198,1.03585 4.64286,1.42857 1.7723,0.44307 2.73097,1.07143 4.64286,1.07143 2.04466,0 2.95844,0.35714 5,0.35714 1.93201,0 -2.51186,0.89582 -3.21429,1.07143 -1.42485,0.35621 -3.53267,0.34745 -5,0.71428 -2.68488,0.67123 -1.3366,1.1634 0,2.5 1.12749,1.12749 2.33818,1.6239 3.21429,2.5 1.45304,1.45305 2.35286,3.13715 3.21428,4.28572 1.35961,1.8128 -1.17356,1.04589 -2.5,0.71428 -2.06726,-0.51681 -2.83631,-1.16592 -4.64285,-0.71428 -1.76993,0.44248 1.01261,3.51261 1.42857,3.92857 1.10865,1.10865 3.00335,1.46512 4.28571,1.78571 1.43537,0.35885 2.79723,1.01152 3.57143,1.78572 1.47043,1.47043 -1.88417,0.68967 -3.21429,0.35714 -1.84424,-0.46106 -3.56443,-1.33404 -4.64285,-2.14286 -1.01294,-0.7597 -2.66831,-1.15558 -3.92857,-1.78571 -0.88565,-0.44282 -3.84958,0.78382 -5,1.07143 -1.5789,0.39472 0.93754,-2.72326 1.07142,-2.85714 0.77212,-0.77212 3.07847,-1.50528 3.92858,-2.14286 1.4869,-1.11518 1.31506,-1.68881 1.78571,-3.57143 0.39312,-1.57249 -0.92748,-3.07034 -1.78571,-3.92857 -0.97193,-0.97193 -1.63514,-2.19884 -2.14286,-3.21429 -0.42331,-0.84661 -0.44311,-1.85839 -0.71429,-3.21428 z M 277.5,623.43361 c -0.91906,-1.83812 4.05626,0.66839 6.07143,1.07143 2.55976,0.51195 4.82817,1.37948 7.5,2.14286 0.83333,0.23809 1.66667,0.47619 2.5,0.71428 1.45386,0.41539 3.10035,1.04295 4.64286,1.42857 2.09487,0.52372 3.08001,1.0043 4.64285,1.78572 3.20714,1.60356 -0.47271,0.69117 -2.14285,0.35714 -2.09058,-0.41811 -4.00264,-1.01481 -6.07143,-1.42857 -1.84763,-0.36953 -3.71504,-0.35714 -5.71429,-0.35714 -1.96423,0 -3.22243,0.3551 -4.64286,0 -1.49695,-0.37424 -3.21765,-1.25169 -4.28571,-1.78572 -1.9904,-0.9952 -2.5,-1.08047 -2.5,-3.92857 z m 26.78571,-6.78571 c -1.61132,-0.80567 3.55563,0.71428 5.35715,0.71428 2.13217,0 1.06079,1.82827 0.71428,3.21429 -0.45129,1.80516 0.2502,3.71468 0.71429,4.64285 0.62088,1.24176 1.52198,-2.32967 2.14286,-3.57142 0.93448,-1.86897 1.3856,-3.17132 2.5,-4.28572 0.93601,-0.93601 1.89022,-2.91803 1.07142,0.35714 -0.4049,1.61961 -1.20134,2.75983 -1.78571,3.92858 -0.66702,1.33404 -0.62776,3.20322 -0.35714,4.28571 0.16152,0.64609 2.79247,1.93195 3.21428,2.14286 0.82256,0.41128 1.5123,3.5492 1.78572,4.64285 0.48945,1.95783 0.054,3.32226 0.71428,4.64286 0.34107,0.68214 3.29522,1.64761 4.28572,2.14286 2.34721,1.17361 4.32077,1.87116 6.78571,2.85714 2.2809,0.91236 4.67062,1.08531 6.78572,2.14286 2.27605,1.13803 6.04071,1.15303 8.57142,1.78571 2.81844,0.70461 5.36755,0.85923 8.21429,1.42857 2.28901,0.45781 5.19079,1.52397 7.14286,2.5 1.74941,0.87471 4.46822,1.38492 6.07143,1.78572 2.00962,0.50241 3.88036,1.58304 5.71428,2.5 1.5003,0.75015 4.16853,1.13142 5.35714,1.42857 2.07858,0.51965 4.33838,0.28102 6.07143,0.71429 1.85734,0.46433 3.24628,1.07942 4.64286,1.42857 1.96338,0.49084 -4.07515,0.33271 -6.07143,0 -2.49114,-0.41519 -4.7046,-1.17615 -7.14286,-1.78572 -2.49195,-0.62299 -5.6011,-1.42857 -7.85714,-1.42857 -2.61296,0 -5.62435,-1.35406 -8.21428,-1.78571 -3.29513,-0.54919 -6.38249,-2.04205 -9.64286,-2.85715 -3.01657,-0.75414 -5.86489,-2.14285 -8.92857,-2.14285 -1.93543,0 -4.55003,-1.04822 -6.07143,-1.42857 -1.79408,-0.44852 -3.98158,-0.87835 -5.35714,-1.42858 -1.70492,-0.68196 -4.02143,-1.11785 -5.35715,-1.78571 -1.51164,-0.75582 -2.93028,-1.44685 -4.28571,-1.78571 -1.2152,-0.3038 -2.333,-2.166 -2.85714,-3.21429 -0.59589,-1.19177 -1.22611,-2.80936 -1.78572,-3.92857 -0.78264,-1.56528 -0.68245,-2.46817 -1.78571,-3.57143 -0.86755,-0.86755 -3.09371,-0.95085 -3.92857,-1.78571 -0.71861,-0.71861 -3.66895,-0.35715 -5,-0.35715 -0.69872,0 -1.9821,-3.2499 -2.14286,-3.57143 -0.83351,-1.66701 -1.41483,-2.91211 -1.07143,-4.28571 0.56221,-2.24882 2.98927,1.2428 3.21429,2.14286 0.41275,1.65103 0.093,3.41611 2.14285,3.92857 1.17382,0.29345 0.71429,-3.64624 0.71429,-4.64286 0,-2.71331 -0.70796,-2.13653 -2.14286,-3.57143 -0.88507,-0.88507 -0.78538,-0.78538 -2.14286,-2.14285 z M 580,490.21932 c -2.69374,-2.69374 0,7.61905 0,11.42858 0,3.61698 0.71429,5.91677 0.71429,10 0,3.18412 0.70506,6.46545 0,9.28571 -0.68959,2.75835 -2.17288,5.12009 -2.85715,7.85714 -0.77869,3.11476 0,7.48467 0,10.71429 0,3.72992 0.72867,7.20038 1.42857,10 0.77869,3.11476 0,7.48467 0,10.71428 0,5.87983 -2.75557,2.24443 -4.28571,0.71429 -1.96018,-1.96018 -2.59328,-7.32941 -3.57143,-9.28571 -1.81297,-3.62594 -3.48877,-6.09797 -4.28571,-9.28572 -0.31098,-1.2439 -2.32753,-1.11759 -3.57143,-1.42857 -2.79102,-0.69775 2.28483,5.28395 3.57143,7.85714 1.44932,2.89865 2.22516,5.16461 3.57143,7.85715 1.00432,2.00865 1.62173,7.20121 2.14285,9.28571 0.77869,3.11476 0,7.48467 0,10.71429 0,7.08609 5.01928,13.64853 6.42857,19.28571 0.74142,2.96567 -0.9198,4.69675 -2.14285,7.14286 -1.54853,3.09705 -3.02681,4.62504 -4.28572,7.14286 -1.07814,2.15629 -4.1947,3.88306 -6.42857,5 -2.57779,1.28889 -4.21382,3.17834 -6.42857,4.28571 -5.83046,2.91523 -3.02652,-6.8041 -2.14286,-8.57143 1.72024,-3.44046 1.58547,-6.74236 2.85715,-9.28571 1.76296,-3.52592 -1.47869,-7.24308 -2.14286,-8.57143 -1.66913,-3.33826 -3.54404,-3.75685 -7.14286,-2.85715 -2.40002,0.60001 -4.09687,4.09687 -5.71428,5.71429 -2.26892,2.26892 -3.65262,5.32477 -4.28572,7.85714 -0.85746,3.42987 -2.83786,5.67572 -4.28571,8.57143 -1.51548,3.03096 -3.62196,6.52963 -5,9.28572 -1.32346,2.64691 -5.46645,3.68804 -7.85715,4.28571 -3.54676,0.88669 -5.31967,2.46253 -7.14285,4.28572 -2.80195,2.80194 -4.60552,3.82995 -9.28572,5 -4.02551,1.00637 -5.81032,1.52461 -7.85714,3.57142 -2.69151,2.69151 -6.76502,1.26035 -9.28571,0 -1.83195,-0.91597 -3.16806,-2.65545 -5,-3.57142 -2.42811,-1.21406 4.50898,-3.08042 6.42857,-5 1.86797,-1.86798 3.73798,-3.19025 5,-5.71429 0.53002,-1.06005 5.90058,-2.95029 7.14285,-3.57143 3.48685,-1.74342 3.11033,-2.85714 8.57143,-2.85714 4.3135,0 6.37145,-0.70001 9.28572,-1.42857 2.73198,-0.683 4.56047,-3.1319 6.42857,-5 2.63016,-2.63016 2.48412,-5.99205 2.85714,-7.85715 0.6276,-3.13799 -1.95065,-3.31039 2.85714,-5.71428 2.55957,-1.27978 5.20329,-4.03022 7.14286,-5 2.41444,-1.20722 4.15342,-3.43914 5.71429,-5 2.18981,-2.18981 3.96274,-3.0528 6.42857,-4.28572 3.09533,-1.54766 4.52606,-3.33445 7.85714,-5 2.25197,-1.12598 3.35372,-4.56457 4.28572,-6.42857 1.52532,-3.05065 2.14285,-4.49938 2.14285,-8.57143 0,-3.57143 0,-7.14285 0,-10.71428 0,-0.74595 -4.54453,-5.51765 -5,-6.42857 -1.83815,-3.6763 -4.19996,-2.54288 -6.42857,-1.42858 -3.7517,1.87585 -1.6124,4.10189 -5.71428,0 -3.80654,-3.80654 -1.82982,-7.76892 0,-11.42857 1.44178,-2.88356 0.34767,-7.12392 1.42857,-9.28571 0.94384,-1.88768 5.77679,-1.45982 7.14285,-2.14286 2.34255,-1.17127 0,-5.23809 0,-7.85714 0,-2.02031 2.32574,3.79572 4.28572,4.28571 1.50161,0.37541 -1.16632,-5.9403 3.57143,-3.57143 2.68615,1.34308 3.03753,2.84988 4.28571,-2.14285 0.5462,-2.18479 -1.65694,-6.62776 -2.14286,-8.57143 -0.87025,-3.48101 0.003,-7.13023 -0.71428,-10 -1.26945,-5.07781 2.93707,-1.10884 3.57143,1.42857 0.78548,3.14192 1.73478,6.02049 3.57143,7.85714 2.53098,2.53099 -0.15384,-7.2418 0.71428,-10.71428 0.8527,-3.41081 -2.2635,-4.02413 3.57143,-2.85715 z m -24.28571,63.57143 c 0.82073,-3.28293 -5.60784,4.57421 -6.42858,7.85715 -0.95055,3.80223 -1.59131,4.67452 0,7.85714 1.67976,3.3595 3.16156,3.6739 6.42858,2.85714 2.87372,-0.71843 4.03227,-4.49312 5,-6.42857 1.62777,-3.25554 1.42857,-6.01364 1.42857,-10 0,-3.48655 -4.68065,-3.01682 -6.42857,-2.14286 z m -59.28572,20.71429 c 0,-4.54856 2.03637,7.32469 3.57143,15 0.60833,3.04167 -2.72706,6.16842 -3.57143,7.85714 -1.74422,3.48846 -3.03203,4.77771 0.71429,5.71429 1.72298,0.43074 6.49484,-4.35199 7.14285,-5 1.56356,-1.56356 2.57418,-5.14835 3.57143,-7.14286 1.29556,-2.59111 1.42857,-5.38892 1.42857,-9.28571 0,-4.02134 -1.61733,-5.18877 -3.57142,-7.14286 -2.06441,-2.06441 -7.40572,0 -9.28572,0 z" id="path10316" style="fill:#5f4433;fill-opacity:1;fill-rule:evenodd;stroke:none" inkscape:connector-curvature="0"/><path d="m 198.21429,725.75504 c -31.6798,-25.09059 -58.72206,-54.47681 -81.42857,-98.21431 5.68634,-0.16607 12.76457,2.4201 14.99999,8.03574 3.01285,5.23319 4.03746,11.42539 7.5,16.42857 1.97287,6.7218 11.50499,6.54329 10.00529,-1.45605 -0.7081,-8.0561 7.82053,-4.4827 10.00853,0.10021 1.70874,4.442 10.59384,5.92509 6.81399,-0.56542 -2.94423,-5.91018 -8.39408,-10.90417 -9.40235,-17.69212 0.20345,-2.20815 -3.47051,-4.85896 0.92194,-4.76857 4.03511,4.11957 1.39899,10.94612 6.29546,15.09623 2.6141,4.85159 10.46796,10.35463 5.10933,15.70037 3.99003,2.59195 5.96644,7.79913 9.08285,10.41178 2.14233,-1.59363 3.97523,2.22291 3.7589,-2.52107 -0.86252,-2.20618 -2.375,-8.80886 0.69124,-3.49536 2.55816,5.67695 8.47289,10.16556 8.1434,16.69 4.65888,4.89148 5.79434,11.59338 8.92857,17.14286 6.41055,2.13415 7.911,9.16526 13.21428,12.85714 2.5253,4.81813 9.4058,7.27908 10.09843,12.61672 -2.9853,1.25656 -11.11736,-1.95178 -10.89306,0.90756 5.28983,3.1725 10.9908,5.58327 16.18718,8.90971 5.2534,3.08321 10.92369,5.75766 15.53372,9.6935 -6.43116,-0.8108 -12.18297,-4.42679 -18.3886,-6.228 -5.91113,-3.22972 -12.70785,-5.1427 -17.27558,-10.38881 -3.24404,-1.71287 -6.97514,-0.95581 -9.90494,0.73932 z" id="path17002" sodipodi:nodetypes="cccccccccccccccccccccccc" style="color:#000000;fill:url(#radialGradient17005);fill-opacity:1;fill-rule:evenodd;stroke:none;stroke-width:1px;marker:none;visibility:visible;display:inline;overflow:visible" inkscape:connector-curvature="0"/><path d="m 402.14286,593.07647 c -2.30032,-1.32873 -6.0052,-1.85195 -7.85715,0 -2.82685,2.82686 -2.07305,4.42532 -0.71428,7.14285 1.47746,2.95492 6.70537,0.57589 7.85714,0 3.32705,-1.66352 3.72465,-2.12558 0.71429,-7.14285 z m -30.71429,16.42857 c 3.1443,-1.57215 -5.87524,4.14738 -9.28571,5 -2.2963,0.57407 -6.01376,3.8709 -7.14286,5 -2.89898,2.89898 -0.97795,5.45062 0.71429,7.14286 2.89177,2.89177 2.269,3.06725 7.14285,4.28571 2.39165,0.59791 3.8354,5.26396 5,6.42857 1.22567,1.22567 3.26664,1.42857 5,1.42857 2.5754,0 -3.13396,-4.12507 -4.28571,-6.42857 -1.47757,-2.95514 -3.13503,-3.84931 -5,-5.71428 -2.70718,-2.70718 2.3151,-5.17225 3.57143,-6.42857 1.78571,-1.78572 5.35714,-1.78572 7.14285,-3.57143 2.91853,-2.91853 1.53526,-6.26438 -2.85714,-7.14286 z m 66.42857,-10 c -1.3636,2.7272 4.09375,-5.71429 7.14286,-5.71429 3.93233,0 -0.57806,6.87042 -0.71429,7.14286 -1.81744,3.63488 -4.25755,2.18979 -6.42857,-1.42857 z m -28.21428,-17.14286 c 1.19267,0.6992 2.71252,1.42857 5,1.42857 1.77533,0 0.8497,0.0863 0,1.78572 -0.78579,1.57157 -3.44821,0.24018 -3.92857,0 -0.90641,-0.45321 -0.86275,-2.17089 -1.07143,-3.21429 z m 72.14286,7.5 c -1.29382,0.59278 -3.00795,2.6508 -3.92858,3.57143 -1.13712,1.13712 -1.0363,2.3595 -1.42857,3.92857 -0.41904,1.67617 -1.01732,2.84362 -2.5,3.21429 -1.98094,0.49523 -0.54246,-2.47303 -0.35714,-3.21429 0.34475,-1.37899 1.60468,-2.31897 2.5,-3.21428 1.05058,-1.05058 1.22868,-2.0036 3.21429,-2.5 0.9935,-0.24838 1.70032,-1.14598 2.5,-1.78572 z m -18.21429,23.21429 c 1.39551,-0.34888 -3.57969,0.3902 -3.92857,1.78571 -0.17246,0.68985 3.91818,0.71429 4.64286,0.71429 1.38644,0 1.90778,-2.5 -0.71429,-2.5 z M 602.14287,474.86218 c 0,0.78857 -0.64,1.42857 -1.42858,1.42857 -0.78857,0 -1.42857,-0.64 -1.42857,-1.42857 0,-0.78857 0.64,-1.42857 1.42857,-1.42857 0.78858,0 1.42858,0.64 1.42858,1.42857 z m 8.21429,16.42856 c 0,0.78857 -0.64,1.42857 -1.42857,1.42857 -0.78857,0 -1.42857,-0.64 -1.42857,-1.42857 0,-0.78857 0.64,-1.42857 1.42857,-1.42857 0.78857,0 1.42857,0.64 1.42857,1.42857 z m -10,5.7143 c 0,0.78857 -0.64,1.42857 -1.42857,1.42857 -0.78857,0 -1.42857,-0.64 -1.42857,-1.42857 0,-0.78858 0.64,-1.42858 1.42857,-1.42858 0.78857,0 1.42857,0.64 1.42857,1.42858 z m -8.57145,-0.7143 c 0,0.98572 -0.8,1.78572 -1.78571,1.78572 -0.98571,0 -1.78571,-0.8 -1.78571,-1.78572 0,-0.98571 0.8,-1.78571 1.78571,-1.78571 0.98571,0 1.78571,0.8 1.78571,1.78571 z m -52.50002,-26.07141 c 0,0.78857 -0.64,1.42857 -1.42857,1.42857 -0.78857,0 -1.42857,-0.64 -1.42857,-1.42857 0,-0.78857 0.64,-1.42857 1.42857,-1.42857 0.78857,0 1.42857,0.64 1.42857,1.42857 z m 6.07144,-9.64285 c 0,0.98571 -0.8,1.78571 -1.78572,1.78571 -0.98571,0 -1.78571,-0.8 -1.78571,-1.78571 0,-0.98572 0.8,-1.78572 1.78571,-1.78572 0.98572,0 1.78572,0.8 1.78572,1.78572 z m -66.7857,206.07142 c 0.5603,2.88689 -4.55356,6.60712 -5.71428,8.92857 -1.56867,3.13733 -1.95562,3.65426 -0.71429,7.5 1.40883,4.36467 7.8648,1.42091 8.57142,0.71428 2.54227,-2.54227 -0.94622,-4.16974 2.14286,-5.71428 2.71226,-1.35613 5.44567,-2.25427 7.85715,-2.85714 3.92499,-0.98125 7.92727,0.0175 2.14285,-1.42858 -3.37515,-0.84379 -4.70277,0.63998 -7.85714,1.42858 -3.81723,0.9543 -5,2.77315 -5,-2.85715 0,-2.75977 -0.0684,-2.31377 -1.42857,-5.71428 z M 644.28571,539.50507 c -0.0406,2.3647 0.0186,4.73619 -0.16693,7.095 -0.35024,-1.48477 -0.21034,-5.37692 -0.50859,-5.51544 -0.41094,3.31789 0.45117,6.57465 0.59745,9.82406 -1.65693,2.86469 -3.7052,5.84327 -3.10261,9.34913 0.74331,3.10642 0.49423,6.95709 1.44903,9.66409 2.27001,-3.04611 2.12716,-7.24008 4.23166,-10.41687 2.10009,-3.50708 -2.08019,-6.54694 -1.4052,-10.14799 1.60666,-2.33015 3.01013,3.10168 4.09525,4.24086 2.26088,3.77606 4.07702,-5.49743 4.19731,-0.9942 -0.36055,3.3961 0.56574,7.11803 -1.14967,10.23082 -3.49416,2.13404 -2.06762,6.28836 -4.20508,9.11275 -1.91622,3.7813 0.0203,8.45097 -2.54477,12.01413 -1.32144,3.34719 -5.22005,3.16253 -7.83377,4.8503 -3.76267,1.85428 -5.53848,6.01681 -9.01122,8.19333 -3.94072,1.1642 -2.24191,-4.76983 -1.42857,-6.78572 -1.036,-1.88895 -3.33263,-2.99189 -4.59156,-4.79413 -4.52585,-0.0397 -4.30368,6.35418 -0.36338,7.38254 2.47026,2.43586 -0.17082,7.30578 -3.32825,7.80187 -3.18527,0.47691 -6.2685,-1.02188 -9.48207,-0.80073 -2.86663,-0.92467 -4.24333,-4.67555 -7.65098,-4.53324 -4.88021,-1.3112 -1.41707,5.71641 -5.63477,6.0288 -3.47792,1.22124 -1.44339,-5.03621 -0.20542,-6.41372 1.09315,-3.66738 5.52584,-1.85163 7.81801,-3.76177 1.32619,-3.53169 -7.54221,-3.90053 -2.5372,-7.12 2.64022,-1.18738 6.03534,-1.7484 5.61848,-5.57533 1.01952,-3.44457 4.68992,-3.22322 7.5,-2.5 2.80566,1.27162 5.25686,-2.89655 1.74832,-3.72583 -2.0536,-1.16314 -7.24713,-1.95776 -4.92555,-5.24943 1.3888,-2.87973 7.0132,-5.53447 7.70267,-0.7416 1.15962,3.88221 3.52482,-1.29147 2.91876,-3.21396 1.24772,-1.20172 5.12137,-0.0596 3.62723,-3.14061 -1.08165,-3.79425 4.50188,-3.4173 4.55906,-0.048 0.96625,4.46916 2.65258,-1.27158 2.80122,-2.92098 -0.32312,-2.98408 0.33178,-6.45585 4.05031,-6.2013 2.93481,-1.02362 0.67074,-5.42081 1.69069,-7.81819 -0.17099,-2.56191 -0.12271,-7.22702 3.49631,-4.37789 0.64587,0.35862 1.28827,0.72989 1.97383,1.00926 z M 164.64285,673.07648 c 1.55691,0.76091 2.31516,2.51047 3.19499,3.92337 0.80931,1.86186 2.47055,3.16335 3.2919,5.02168 1.22036,1.96817 3.07336,3.38409 4.95489,4.67026 0.8047,0.66113 -0.33651,-1.9164 -0.32272,-2.50243 -0.62967,-1.81853 -0.92943,-3.69763 -1.02599,-5.61936 -0.56374,-1.1445 -0.18512,-2.9637 1.25982,-1.60552 1.80034,0.77743 2.52134,2.63129 3.14561,4.35327 1.05426,2.25375 2.96484,3.94959 4.30569,6.0255 1.35437,1.68803 2.90595,3.20874 4.3614,4.80744 1.47928,1.31451 3.53276,2.3634 3.88868,4.51374 0.39134,1.67261 -2.48644,2.68486 -0.87858,4.48005 1.27634,2.7838 3.91474,4.55641 5.55508,7.09572 0.694,0.82436 2.31774,3.21862 1.50692,3.62978 -2.43664,-1.07706 -5.00681,-2.08282 -6.80343,-4.14772 -1.48322,-1.51148 -3.15822,-2.81892 -4.75131,-4.20538 -0.68071,-0.51666 -3.51222,-2.20372 -2.08483,-0.23397 1.15531,1.75784 2.70353,3.17635 4.34552,4.46683 1.13854,1.27766 2.88988,2.04598 3.64951,3.6203 -1.0733,1.50552 -3.43451,0.11554 -4.48599,-0.93607 -2.25565,-2.29414 -5.39794,-4.0611 -6.32144,-7.3575 -0.19271,-2.00193 2.45019,-2.38819 3.51326,-3.64191 1.90598,-0.72682 0.12493,-2.97462 -1.4128,-2.00672 -1.52926,-0.007 -3.65463,1.03357 -4.48164,-0.83821 -1.10432,-1.82436 -2.06555,-3.76426 -3.44483,-5.40204 -1.31065,-1.253 -2.58461,-2.58157 -3.34979,-4.25062 -1.58058,-2.05339 -3.50313,-3.88687 -4.55122,-6.30801 -0.84654,-1.83616 -2.02907,-3.53413 -2.49994,-5.52453 -0.82013,-0.31967 -0.47417,-1.2383 -0.55876,-2.02795 z m 2.50001,11.7857 c 1.63931,0.59159 2.44898,2.04082 3.21428,3.57143 0.52223,1.04445 1.81112,2.16826 2.5,2.85714 1.94324,1.94324 -1.23138,0.27717 -1.78571,0 -1.11325,-0.55662 -1.77242,-2.12956 -2.5,-2.85714 -1.08554,-1.08554 -1.42857,-1.44757 -1.42857,-3.57143 z m 185,-343.21428 c 0.35847,2.15738 -5.54981,6.03031 -10,7.14285 -4.46024,1.11506 0.0145,2.32867 3.21429,2.14286 2.78215,-0.16155 -3.36781,1.46695 -6.07144,2.14286 -2.93749,0.73437 -4.78068,4.39847 -7.14285,3.57143 -3.59735,-1.2595 2.14285,-15.80435 3.92857,-17.5 4.33314,-1.97174 0.69271,5.31398 1.78571,7.5 0.37086,0.74171 6.66217,-3.33109 7.14286,-3.57143 1.70507,-0.85254 4.83908,-2.46782 7.14286,-1.42857 z" id="path16204" sodipodi:nodetypes="csssccssssssssssccssccsssccssssssccssccsssccsssccsssccsssccsssccsssccsssssssscccccccccccccccccccccccccccccccccccccccccccccccccccccccccccccccccccccssssccsssscssc" style="opacity:0.79999994;color:#000000;fill:#3c2c22;fill-opacity:1;fill-rule:evenodd;stroke:none;stroke-width:1px;marker:none;visibility:visible;display:inline;overflow:visible" inkscape:connector-curvature="0"/><path d="m 168.57143,512.00507 c 2.03918,-4.41861 5.66936,-9.63115 11.15484,-9.24031 3.90869,0.34603 5.72937,4.7758 6.0032,8.19342 -0.46418,5.32668 -5.1862,8.98479 -9.47213,11.51252 -3.55246,2.02347 -8.40945,-0.54354 -8.0583,-4.80144 -0.15236,-1.89596 0.13258,-3.78822 0.37239,-5.66419 z m -27.85714,37.5 c -2.39848,1.59516 -4.59492,4.15573 -4.31356,7.21506 -0.1157,2.90369 0.72082,6.66169 3.88259,7.6025 3.53995,0.92537 7.24272,-1.4255 9.00615,-4.39132 0.63224,-2.62972 0.36308,-5.42037 0.42528,-8.11235 0.0487,-3.2542 -3.61672,-5.2107 -6.47029,-4.07278 -1.03206,0.29865 -1.79962,1.02151 -2.53017,1.75889 z M 109.28571,437.00504 c -0.84389,3.32743 -3.00238,6.09731 -4.21391,9.27821 -0.84742,1.92036 -1.39279,4.31962 -0.21667,6.22487 0.6428,1.00816 1.66372,1.95023 2.95181,1.83337 1.66377,-0.0841 3.07444,-1.10063 4.34085,-2.08083 1.78744,-1.00719 3.96882,-2.05643 4.50555,-4.23286 0.7995,-3.75115 2.28491,-7.51359 1.67559,-11.41128 -0.16084,-1.72226 0.17527,-3.67392 -0.95876,-5.13646 -0.83435,-0.89651 -2.17247,-1.03645 -3.33182,-0.99255 -2.15238,0.15359 -4.36073,1.78259 -4.48165,4.05997 -0.98803,0.63755 -0.56619,1.57334 -0.27099,2.45756 z m 13.79527,154.63277 c 3.07634,2.51115 5.19079,2.82782 5.61596,1.74977 0.60236,-0.62325 1.80059,0.24366 1.39701,1.01075 -0.52802,1.47815 -2.00963,1.59944 -3.48103,2.08986 -2.42958,0.80978 -4.92177,-0.0301 -6.01122,-2.38255 -0.81146,-2.78815 -2.41435,-8.11682 3.54304,-9.50502 -2.68522,1.50391 -1.33815,5.58441 -1.06376,7.03719 z" id="path19288" sodipodi:nodetypes="cccccccccccccccccccccccccccsccc" style="fill:#a36734;fill-opacity:1;fill-rule:evenodd;stroke:none" inkscape:connector-curvature="0"/><path d="m 178.57143,511.29075 c -1.93615,0.89878 -3.08015,1.25085 -2.5,3.57143 0.57879,2.31518 2.99898,-0.49898 3.21428,-0.71428 0.78601,-0.78601 -0.10393,-1.8399 -0.71428,-2.85715 z m -65.71429,-73.21428 c -1.58424,1.04853 -1.41036,2.7843 -1.78571,4.28571 -0.63832,2.55329 2.17113,-0.41369 2.5,-1.07143 0.4082,-0.81641 0.34628,-2.79501 -0.71429,-3.21428 z m -3.21428,-3.03573 c 1.24056,-1.20274 2.89643,-2.07663 4.66874,-1.76398 1.8145,-0.28974 3.13922,1.14201 2.84979,2.90687 0.29616,1.9042 0.0876,3.82272 -0.39048,5.67962 -0.29095,1.86254 -0.68978,3.75327 -1.51554,5.4444 -0.78546,1.20251 -1.21917,2.80516 -2.66825,3.38969 -1.38773,0.72073 -2.98105,1.51647 -4.582,1.11306 0.2579,-0.62765 2.33534,-0.89832 3.1149,-1.75947 1.57723,-0.73727 2.29093,-2.36116 2.90547,-3.87971 0.78714,-1.70583 0.8061,-3.59056 1.19238,-5.39859 0.0496,-1.57837 0.19493,-3.5223 -1.12143,-4.66925 -1.38503,-0.58016 -2.23394,1.13606 -3.12924,1.87853 -0.30778,0.6954 -1.38725,3.35935 -1.32501,1.17999 -0.0946,-1.36832 -0.3337,-2.76596 6.7e-4,-4.12116 z m 38.21429,121.96433 c -1.56883,0.96318 -2.46261,2.65886 -3.88904,3.78639 -1.1287,0.53156 -2.40631,0.48489 -3.62362,0.49597 -0.41285,-0.0868 -1.09672,-0.14131 -1.28278,0.32028 0.26665,0.4496 0.91631,0.40836 1.32849,0.67608 0.85675,0.38609 1.816,0.88159 2.77376,0.56315 1.09855,-0.32108 1.99297,-1.11293 3.10263,-1.40547 1.05246,-0.53279 1.95591,-1.42402 2.36986,-2.542 0.0608,-0.73228 -0.58443,-1.23691 -0.7793,-1.8944 z m -3.21429,-3.57146 c 0.40546,-0.81092 -1.07143,1.59336 -1.07143,2.5 0,0.94072 0.46389,1.23205 1.25,1.42857 0.98083,0.24521 1.07143,-0.81178 1.07143,-1.60714 0,-0.93844 0.13462,-1.51647 -0.17857,-2.14286 -0.19451,-0.38902 -0.78209,-0.17857 -1.07143,-0.17857 z M 230,512.54077 c -1.50608,-0.4396 -3.22858,0.22272 -4.19973,1.41077 -0.40825,0.94121 -0.34893,2.08548 -0.0488,3.0497 0.49562,1.0592 1.11657,2.11333 2.16224,2.71334 1.46006,1.07156 3.28045,1.82925 5.11775,1.58704 0.95018,0.28256 2.18542,-0.88491 0.83754,-1.32159 -0.90085,-0.14186 -1.74181,-0.45393 -2.53704,-0.90872 -1.15428,-0.30032 -2.08723,-1.22609 -2.44026,-2.36489 -0.33854,-1.1345 0.0812,-2.35723 0.88386,-3.18672 0.16537,-0.29688 0.23357,-0.6411 0.22445,-0.97893 z m 1.42857,1.60713 c -0.43216,0.56452 -0.89286,1.41505 -0.89286,2.5 0,0.65691 1.13175,0.95257 1.60715,1.07142 1.41174,0.35294 0.84545,-1.97532 0.71428,-2.5 -0.21442,-0.8577 -0.48886,-1.25936 -1.42857,-1.07142 z m -13.03572,-58.21428 c -0.95171,-0.11116 -1.8408,0.42812 -2.71428,0.71454 -1.71196,1.05633 -1.90895,4.10734 0.0385,5.03336 1.24283,0.57698 3.09842,0.72163 3.93584,-0.5939 0.84409,-1.31955 0.67931,-3.09226 -0.033,-4.42139 -0.31564,-0.37261 -0.77879,-0.57057 -1.2271,-0.73261 z m -1.60714,-10.00001 c -0.23684,0.5047 -0.35714,1.58655 -0.35714,2.67857 0,0.71123 1.17834,1.07143 1.78572,1.07143 0.90736,0 1.07142,-0.78945 1.07142,-1.78571 0,-0.75937 -0.52686,-1.47631 -0.89285,-1.96429 -0.40842,-0.54456 -1.01326,-0.23755 -1.60715,0 z m 19.08491,189.48808 c -1.41659,-0.92383 -3.54598,-0.29747 -4.70502,0.73372 -1.21721,2.13467 0.61367,5.35158 3.1424,5.14085 1.56657,0.3519 3.3149,-0.51253 3.29096,-2.28378 0.34626,-1.32213 0.0918,-3.66334 -1.72834,-3.59079 z m -8.33375,-10.354 c 1.58306,0.73012 2.55525,2.69636 2.43779,4.38003 -0.75184,2.35889 -3.97424,3.86136 -6.11016,2.33688 -1.45513,-1.19763 -2.6597,-3.02882 -2.36737,-4.9912 0.32081,-0.67924 1.06109,-3.11987 1.82761,-1.94388 0.0179,1.22851 -0.49943,2.43183 -0.20915,3.67291 0.0495,1.70075 2.15574,1.99964 3.38294,1.36651 1.60677,-0.82176 1.50351,-2.91751 1.11567,-4.41455 l -0.0397,-0.20397 -0.0376,-0.20273 0,0 z" id="path19320" style="fill:#6e4f35;fill-opacity:1;fill-rule:evenodd;stroke:none" inkscape:connector-curvature="0"/><path d="m 373.57144,653.07648 c -0.13678,-13.08589 -27.16974,-26.34091 -13.05555,-35.45391 5.37803,-11.83629 19.95801,-13.00623 25.68575,-0.98434 10.04487,-0.3113 1.71607,-18.69305 16.37145,-13.30669 5.70525,-3.95194 14.21837,-10.64226 8.98225,1.7579 -7.04347,8.54705 12.33504,3.92956 15.88894,8.29134 4.38597,-4.56048 18.03182,-28.5391 17.79554,-11.63892 -9.01302,8.82854 -13.83364,28.83314 5.51706,24.75962 10.07097,8.78923 31.49926,-8.68709 32.64435,11.52452 -5.34549,12.46873 -25.29364,9.5152 -30.31512,18.49249 13.37206,4.40347 15.49992,17.85244 20.64528,29.8273 13.03422,-1.21757 23.94742,-12.41602 32.0549,-22.51544 11.20919,-13.72124 26.826,-2.34894 24.63143,12.75792 -16.09906,16.26119 14.23904,24.20217 23.24697,11.19446 10.06379,-8.31274 22.25006,-14.41253 28.66951,-26.36834 9.44116,-15.96882 18.34643,-34.25152 34.80866,-44.05221 14.7456,-5.65131 15.91633,5.85099 9.25784,17.6758 -11.40061,20.21537 -25.038,42.4382 -55.69457,72.07103 -15.79546,6.42314 -28.8724,16.03851 -43.56327,24.53889 -17.02842,6.92113 -34.07979,14.56155 -48.41237,26.23762 -14.40172,12.09657 -33.05437,18.90037 -51.91043,19.27525 -7.10257,1.90048 -27.7851,3.24143 -10.4068,-3.12989 10.54681,-4.7659 47.65575,3.40882 33.44349,-21.72982 -13.81588,-9.59651 -28.48882,2.24424 -40.90274,12.55477 -17.40851,10.39385 -26.70861,-14.36735 -11.47342,-19.42203 -10.73336,-4.61898 -3.4747,-13.61911 -2.57351,-20.76019 -7.36723,-3.50076 -32.40116,-10.2658 -26.21706,3.25165 -16.48,1.59556 -21.83597,19.1012 -39.93666,15.00741 -14.91365,-7.75419 -31.10659,16.6443 -10.89622,19.42951 11.36108,-0.91537 23.25604,9.65144 29.61003,13.53997 -16.02547,-1.67559 -30.00931,-5.57799 -41.5145,-7.42649 -6.29242,3.84113 -14.36718,-0.88265 -5.25419,-4.27455 -6.69912,-2.78465 -17.3525,1.04686 -16.85806,-9.35803 -17.59542,-8.76085 10.14714,-5.25738 13.84887,-10.31171 5.97295,-13.38578 26.1954,-7.27655 37.31071,-16.4549 6.16469,-1.05149 30.31865,-8.2348 11.64827,-9.65621 -8.61663,3.52582 -14.30829,8.91073 -22.92352,3.17072 -7.09292,7.03507 -20.61901,0.68904 -25.72969,12.04379 -8.93769,-0.90723 -17.9356,0.013 -25.67076,2.5195 1.7938,-8.22922 6.12755,-16.63958 -5.73784,-9.60603 -0.0647,-8.22338 20.62523,-11.25075 2.69925,-12.75749 -6.55015,0.0981 -11.00517,-8.27842 -14.49885,-11.39814 5.72598,-11.91743 -22.11584,3.15814 -28.35829,-7.17328 -10.97895,-2.02393 -15.67205,-20.49271 0.43811,-14.88841 17.40917,4.95894 30.54796,-10.51725 47.41903,-2.25445 11.79956,4.92612 24.08967,29.76267 38.4356,14.76748 7.75836,-7.74426 17.06133,14.12589 28.57021,4.89613 14.42872,1.06981 -1.78737,-22.41441 17.83055,-20.47655 -6.63282,-8.21519 -2.96265,-11.82268 6.76859,-11.68348 5.7492,-1.61188 6.99672,-7.33221 7.68078,-12.50357 z m 5.23576,16.94296 c -2.75649,1.97622 -12.13492,17.66849 -18.68782,13.63706 -5.40817,-0.95141 -2.89451,6.73594 -1.6938,7.3363 2.09556,1.04778 12.20743,2.26015 14.82579,2.26015 2.99897,0 4.56361,-1.01015 7.07106,-1.01015 2.81702,0 -3.92858,2.30133 -5.05076,4.54569 -1.08392,2.16784 3.1346,3.08252 4.04061,3.53553 1.33463,0.66731 2.80504,3.0085 3.53553,4.04061 2.59495,3.66637 7.78636,-2.35608 8.08123,-3.53553 0.59007,-2.36029 1.13776,-4.13932 1.51522,-6.06092 1.80062,-9.16675 -2.21414,-19.56881 -2.52538,-20.70813 -1.82813,-6.69197 -8.37229,-5.63637 -11.11168,-4.04061 z" id="path11103" sodipodi:nodetypes="ccccccccccccccccccccccccccccccccccccccccccccccccccccsssssssssc" style="fill:url(#radialGradient12564);fill-opacity:1;fill-rule:evenodd;stroke:none" inkscape:connector-curvature="0"/><path d="m 512.85712,263.79074 c -0.85782,1.91569 1.59402,2.87346 2.42565,4.22403 0.93487,1.31578 2.67709,3.29349 1.29823,4.8613 -1.55971,1.51079 -4.02542,0.47986 -5.68771,1.78869 -1.23885,0.96071 -3.10081,2.8411 -4.43308,0.91152 -0.58657,-1.12133 -2.27276,-3.27199 -3.37597,-1.50925 -0.29413,2.04592 0.10355,4.13223 0.5403,6.12657 1.05804,2.40042 3.88571,3.17644 6.27537,3.4279 5.18626,0.55838 10.57129,-0.49637 15.59532,1.29372 1.88764,0.63703 3.57227,1.73865 5.39347,2.51871 2.20434,0.4192 2.42873,-2.28003 2.71938,-3.80057 0.97103,-5.11189 -1.21218,-10.75609 -5.58521,-13.65549 -2.22574,-1.60467 -4.08403,-3.73317 -6.61134,-4.89248 -2.46112,-1.2363 -5.29985,-1.78884 -8.02925,-1.30644 -0.17495,0.007 -0.35005,0.0118 -0.52516,0.0118 z M 555,288.79075 c -3.26664,-0.81666 4.76191,4.76191 7.14286,7.14286 1.91958,1.91959 -0.22327,-5.93756 -2.14286,-7.85714 -1.19048,-1.19048 -3.34911,0.3841 -5,0.71428 z" id="path30336" style="color:#000000;fill:url(#radialGradient30351);fill-opacity:1;fill-rule:evenodd;stroke:none;stroke-width:1px;marker:none;visibility:visible;display:inline;overflow:visible" inkscape:connector-curvature="0"/></g><path d="m 661.42859,498.79074 c 0,160.55707 -128.87804,290.7143 -287.85715,290.7143 -158.97911,0 -287.857146,-130.15723 -287.857146,-290.7143 0,-160.55707 128.878036,-290.71429 287.857146,-290.71429 158.97911,0 287.85715,130.15722 287.85715,290.71429 z" id="path32737" sodipodi:cx="373.57144" sodipodi:cy="498.79074" sodipodi:rx="287.85715" sodipodi:ry="290.71429" sodipodi:type="arc" style="color:#000000;fill:url(#radialGradient34930);fill-opacity:1;fill-rule:evenodd;stroke:none;stroke-width:1.25617468;marker:none;visibility:visible;display:inline;overflow:visible" transform="matrix(1,0,0,0.990193,0,3.46301)"/></g></svg>