/* XPM */
static char * blueproximity_base_xpm[] = {
"60 60 608 2",
"  	c None",
". 	c #000000",
"+ 	c #030405",
"@ 	c #010102",
"# 	c #000101",
"$ 	c #05080C",
"% 	c #0A1117",
"& 	c #0C151C",
"* 	c #0E171F",
"= 	c #0B131A",
"- 	c #070C12",
"; 	c #020305",
"> 	c #020304",
", 	c #020202",
"' 	c #000002",
") 	c #05090C",
"! 	c #192737",
"~ 	c #273E56",
"{ 	c #304C69",
"] 	c #314E6C",
"^ 	c #2C4762",
"/ 	c #203347",
"( 	c #101B25",
"_ 	c #020204",
": 	c #010203",
"< 	c #070B0F",
"[ 	c #22374C",
"} 	c #314D6B",
"| 	c #2D4864",
"1 	c #162330",
"2 	c #010202",
"3 	c #020203",
"4 	c #010101",
"5 	c #182634",
"6 	c #304D6A",
"7 	c #324F6D",
"8 	c #29415B",
"9 	c #080C11",
"0 	c #010204",
"a 	c #23374C",
"b 	c #98A7B6",
"c 	c #4D6680",
"d 	c #2F4B68",
"e 	c #0C141C",
"f 	c #020405",
"g 	c #24394F",
"h 	c #B6C1CB",
"i 	c #EDF0F2",
"j 	c #5C738B",
"k 	c #1C2D3E",
"l 	c #FFFFFF",
"m 	c #F6F7F9",
"n 	c #6E8297",
"o 	c #2D4863",
"p 	c #030506",
"q 	c #0C131B",
"r 	c #8395A7",
"s 	c #B8C2CC",
"t 	c #9CAAB8",
"u 	c #070B10",
"v 	c #000202",
"w 	c #0F1922",
"x 	c #B3BEC9",
"y 	c #36526F",
"z 	c #1F3144",
"A 	c #243A50",
"B 	c #C8D0D8",
"C 	c #3C5874",
"D 	c #030608",
"E 	c #DFE4E9",
"F 	c #DADFE4",
"G 	c #47617C",
"H 	c #121D2A",
"I 	c #AFBAC6",
"J 	c #405A76",
"K 	c #CFD6DD",
"L 	c #E8EBEE",
"M 	c #556D85",
"N 	c #203245",
"O 	c #D0D7DE",
"P 	c #677D93",
"Q 	c #AAB6C2",
"R 	c #375471",
"S 	c #BCC5CF",
"T 	c #F2F4F6",
"U 	c #657A91",
"V 	c #2A425B",
"W 	c #000001",
"X 	c #284059",
"Y 	c #3D5875",
"Z 	c #D6DCE2",
"` 	c #F7F8F9",
" .	c #6A7F95",
"..	c #687D93",
"+.	c #FDFDFD",
"@.	c #75889C",
"#.	c #304D6B",
"$.	c #304C6A",
"%.	c #72869A",
"&.	c #F9F9FA",
"*.	c #6D8197",
"=.	c #637990",
"-.	c #778A9E",
";.	c #080C12",
">.	c #070A0F",
",.	c #7B8EA1",
"'.	c #FAFBFC",
").	c #708499",
"!.	c #61778E",
"~.	c #F5F7F8",
"{.	c #7C8FA2",
"].	c #121C27",
"^.	c #FCFCFD",
"/.	c #ECEFF2",
"(.	c #E4E7EB",
"_.	c #F3F5F6",
":.	c #FEFEFE",
"<.	c #7F91A4",
"[.	c #010304",
"}.	c #111A25",
"|.	c #8293A6",
"1.	c #14202C",
"2.	c #71859A",
"3.	c #8798A9",
"4.	c #1F3245",
"5.	c #F9FAFB",
"6.	c #8B9BAC",
"7.	c #010303",
"8.	c #172533",
"9.	c #8D9DAE",
"0.	c #DDE2E7",
"a.	c #253C53",
"b.	c #010103",
"c.	c #162331",
"d.	c #516A83",
"e.	c #8596A8",
"f.	c #131E2A",
"g.	c #4F6881",
"h.	c #EAEDF0",
"i.	c #899AAB",
"j.	c #E8ECEF",
"k.	c #63665E",
"l.	c #62645F",
"m.	c #62665D",
"n.	c #62635E",
"o.	c #0C131A",
"p.	c #4B647E",
"q.	c #E7EAEE",
"r.	c #F0F3F5",
"s.	c #91A1B1",
"t.	c #213549",
"u.	c #63655D",
"v.	c #62655F",
"w.	c #809766",
"x.	c #A8CB86",
"y.	c #C7E6A7",
"z.	c #D1EEB5",
"A.	c #D3F0B8",
"B.	c #C8EAA9",
"C.	c #B0D68B",
"D.	c #8AAE66",
"E.	c #66705A",
"F.	c #61645E",
"G.	c #62655E",
"H.	c #060A0F",
"I.	c #48617C",
"J.	c #E4E8EC",
"K.	c #A3B0BD",
"L.	c #9EACBA",
"M.	c #C2CBD4",
"N.	c #F1F3F5",
"O.	c #94A3B3",
"P.	c #7D8F6C",
"Q.	c #C5E4A7",
"R.	c #E6F7D4",
"S.	c #E4F6D1",
"T.	c #CFF0AF",
"U.	c #C3EB9B",
"V.	c #BEEA92",
"W.	c #C4EC9E",
"X.	c #D3F1B6",
"Y.	c #DBF4C3",
"Z.	c #CDEEAD",
"`.	c #95BA71",
" +	c #63675E",
".+	c #61665E",
"++	c #D4DAE0",
"@+	c #A5B2BF",
"#+	c #597189",
"$+	c #F0F2F4",
"%+	c #99A8B6",
"&+	c #1A2938",
"*+	c #97AF7F",
"=+	c #E2F5CF",
"-+	c #DDF4C7",
";+	c #B1E67C",
">+	c #91DC49",
",+	c #8EDB44",
"'+	c #8EDB43",
")+	c #8DDA42",
"!+	c #8CDA40",
"~+	c #8CDA3F",
"{+	c #9CE05A",
"]+	c #C4EC9C",
"^+	c #D9F3C0",
"/+	c #BCE098",
"(+	c #6A7360",
"_+	c #62665E",
":+	c #283F58",
"<+	c #597088",
"[+	c #EFF1F3",
"}+	c #A9B5C2",
"|+	c #8495A7",
"1+	c #546C85",
"2+	c #63655E",
"3+	c #93A97D",
"4+	c #E6F7D7",
"5+	c #D2F0B3",
"6+	c #9CDF5A",
"7+	c #96DD50",
"8+	c #95DD4F",
"9+	c #94DD4D",
"0+	c #93DC4C",
"a+	c #93DC4B",
"b+	c #92DC49",
"c+	c #91DC48",
"d+	c #91DC47",
"e+	c #ADE578",
"f+	c #D8F2BE",
"g+	c #C3E5A3",
"h+	c #686E60",
"i+	c #566E87",
"j+	c #A0AEBC",
"k+	c #556D86",
"l+	c #FDFEFE",
"m+	c #7B8DA0",
"n+	c #080E13",
"o+	c #727B69",
"p+	c #E3F5D2",
"q+	c #D8F3BE",
"r+	c #ABE473",
"s+	c #B5E784",
"t+	c #AEE578",
"u+	c #9DE05C",
"v+	c #9BDF59",
"w+	c #9BDF58",
"x+	c #9ADF57",
"y+	c #99DE55",
"z+	c #98DE54",
"A+	c #97DE52",
"B+	c #97DD51",
"C+	c #ACE574",
"D+	c #DAF3C1",
"E+	c #B0D38E",
"F+	c #3A3B37",
"G+	c #394044",
"H+	c #485966",
"I+	c #828B8F",
"J+	c #B6B7B4",
"K+	c #959B9D",
"L+	c #586671",
"M+	c #C4C7C7",
"N+	c #8697A9",
"O+	c #BAD69F",
"P+	c #EDF9E1",
"Q+	c #E3F6CF",
"R+	c #EDF9E0",
"S+	c #E6F7D5",
"T+	c #C2EC9A",
"U+	c #A1E163",
"V+	c #A0E061",
"W+	c #9FE060",
"X+	c #9FE05F",
"Y+	c #9EE05D",
"Z+	c #9CDF5B",
"`+	c #BFEA94",
" @	c #DAF3C2",
".@	c #81966A",
"+@	c #646661",
"@@	c #646662",
"#@	c #9C9D9A",
"$@	c #F5F5F4",
"%@	c #253B51",
"&@	c #696D64",
"*@	c #EBF8DF",
"=@	c #ECF9DF",
"-@	c #DDEFCB",
";@	c #A8B998",
">@	c #8E9388",
",@	c #949E89",
"'@	c #C8DBB6",
")@	c #EDF9E2",
"!@	c #D0F0B1",
"~@	c #A6E26B",
"{@	c #A6E26A",
"]@	c #A5E269",
"^@	c #A4E267",
"/@	c #A3E266",
"(@	c #A3E165",
"_@	c #A2E165",
":@	c #A4E167",
"<@	c #D5F2BA",
"[@	c #DBF3C3",
"}@	c #D7F2BB",
"|@	c #D5F1B9",
"1@	c #D3F1B5",
"2@	c #D1F0B2",
"3@	c #CFEFAF",
"4@	c #CDEFAC",
"5@	c #CCEFA9",
"6@	c #C9EEA6",
"7@	c #C7EDA3",
"8@	c #C5ED9F",
"9@	c #C1EB99",
"0@	c #C0EB95",
"a@	c #BDEA92",
"b@	c #BBE98E",
"c@	c #B9E98B",
"d@	c #B6E886",
"e@	c #B4E782",
"f@	c #B1E67D",
"g@	c #A7E16F",
"h@	c #81AA59",
"i@	c #656863",
"j@	c #162431",
"k@	c #8FA37A",
"l@	c #E3F6D0",
"m@	c #E2F2D3",
"n@	c #6B6E66",
"o@	c #62645E",
"p@	c #62635F",
"q@	c #B4C4A3",
"r@	c #EFFAE4",
"s@	c #BCE990",
"t@	c #ACE474",
"u@	c #AAE472",
"v@	c #A9E370",
"w@	c #A8E36F",
"x@	c #A8E36E",
"y@	c #A8E36D",
"z@	c #B8E58B",
"A@	c #BAE193",
"B@	c #B3DC8B",
"C@	c #AED787",
"D@	c #ABD183",
"E@	c #A6CB80",
"F@	c #9FC47A",
"G@	c #99BD74",
"H@	c #92B56F",
"I@	c #8BAC6B",
"J@	c #82A362",
"K@	c #81A260",
"L@	c #80A25F",
"M@	c #7FA15E",
"N@	c #7EA15B",
"O@	c #7CA159",
"P@	c #7CA158",
"Q@	c #7BA157",
"R@	c #79A054",
"S@	c #79A053",
"T@	c #779F51",
"U@	c #7DA15B",
"V@	c #6C8355",
"W@	c #040608",
"X@	c #C5D4B6",
"Y@	c #889D71",
"Z@	c #636560",
"`@	c #E3F2D4",
" #	c #B2E67F",
".#	c #B2E67E",
"+#	c #ADE577",
"@#	c #81D62D",
"##	c #76D31B",
"$#	c #73D216",
"%#	c #73CC1C",
"&#	c #71C51F",
"*#	c #70BF20",
"=#	c #6CB822",
"-#	c #68B022",
";#	c #62A720",
">#	c #5C9C1E",
",#	c #55911A",
"'#	c #4D8516",
")#	c #447713",
"!#	c #3C6A0F",
"~#	c #3E6A13",
"{#	c #406B16",
"]#	c #426C19",
"^#	c #456C1D",
"/#	c #476D21",
"(#	c #496E24",
"_#	c #4B6E28",
":#	c #4C6F2B",
"<#	c #4E702E",
"[#	c #4F702F",
"}#	c #507030",
"|#	c #5C7445",
"1#	c #6B8750",
"2#	c #22364A",
"3#	c #63655F",
"4#	c #E1EAD8",
"5#	c #656C5E",
"6#	c #616360",
"7#	c #CEE0BC",
"8#	c #E8F7D9",
"9#	c #ADE576",
"0#	c #75D31A",
"a#	c #8FDB45",
"b#	c #A7E36C",
"c#	c #A1E162",
"d#	c #86D836",
"e#	c #7DD527",
"f#	c #83A95C",
"g#	c #080D12",
"h#	c #DDE6D5",
"i#	c #6A795C",
"j#	c #D1E3BF",
"k#	c #D6EFBE",
"l#	c #72CD19",
"m#	c #71CD17",
"n#	c #72CF17",
"o#	c #73D118",
"p#	c #73D117",
"q#	c #B6E885",
"r#	c #C2EB9A",
"s#	c #ACE475",
"t#	c #7AD421",
"u#	c #A3C77F",
"v#	c #99BD76",
"w#	c #A2C77E",
"x#	c #AFE57B",
"y#	c #80D62B",
"z#	c #7CD526",
"A#	c #A7E26C",
"B#	c #98DE53",
"C#	c #77D31D",
"D#	c #89D93B",
"E#	c #9BDE59",
"F#	c #71786A",
"G#	c #1B2B3C",
"H#	c #62655D",
"I#	c #B0BFA0",
"J#	c #96B378",
"K#	c #6B7262",
"L#	c #CDDFBA",
"M#	c #A6D677",
"N#	c #6FC619",
"O#	c #6FC719",
"P#	c #71CA1A",
"Q#	c #72CB1A",
"R#	c #73CF19",
"S#	c #73CF18",
"T#	c #81D72E",
"U#	c #C0EB97",
"V#	c #BCE196",
"W#	c #909F81",
"X#	c #BCE296",
"Y#	c #B3E680",
"Z#	c #B8E888",
"`#	c #AAD67F",
" $	c #656762",
".$	c #A9D87D",
"+$	c #A7E36D",
"@$	c #A2D56F",
"#$	c #829170",
"$$	c #A1D76D",
"%$	c #84AB5E",
"&$	c #445767",
"*$	c #263D54",
"=$	c #767D6F",
"-$	c #E3F6D1",
";$	c #C9D9B9",
">$	c #77905E",
",$	c #687060",
"'$	c #B4CE99",
")$	c #CEE1BB",
"!$	c #7AC92F",
"~$	c #8BDA3D",
"{$	c #CAEEA7",
"]$	c #BEE29A",
"^$	c #717A68",
"/$	c #79826E",
"($	c #BEE399",
"_$	c #BDEA90",
":$	c #809769",
"<$	c #5E645F",
"[$	c #35506B",
"}$	c #5F645F",
"|$	c #879F70",
"1$	c #AFE57A",
"2$	c #A9D87A",
"3$	c #6C7563",
"4$	c #727B68",
"5$	c #A0D76B",
"6$	c #90C261",
"7$	c #636660",
"8$	c #4E5C65",
"9$	c #030406",
"0$	c #D9EBC7",
"a$	c #D5E7C3",
"b$	c #BDCFAC",
"c$	c #A2C381",
"d$	c #96B677",
"e$	c #9FC07F",
"f$	c #C1D8AA",
"g$	c #CCDEBB",
"h$	c #90CD54",
"i$	c #6DC319",
"j$	c #7FD42B",
"k$	c #CEEFAE",
"l$	c #C0DEA3",
"m$	c #AAC88D",
"n$	c #A7C18D",
"o$	c #70726D",
"p$	c #767874",
"q$	c #A6B396",
"r$	c #445461",
"s$	c #495965",
"t$	c #666863",
"u$	c #9DAD8C",
"v$	c #6B6D68",
"w$	c #6F7D88",
"x$	c #606460",
"y$	c #6F716C",
"z$	c #89A36F",
"A$	c #686965",
"B$	c #576061",
"C$	c #324E6B",
"D$	c #8D9C7E",
"E$	c #BBD3A4",
"F$	c #B7CF9F",
"G$	c #C5D5B5",
"H$	c #C5D8B2",
"I$	c #ABD284",
"J$	c #7DC538",
"K$	c #6CC218",
"L$	c #73CE19",
"M$	c #B7E886",
"N$	c #CDECAF",
"O$	c #6E7567",
"P$	c #5F625C",
"Q$	c #080A0C",
"R$	c #203346",
"S$	c #334F6B",
"T$	c #5F6360",
"U$	c #39516A",
"V$	c #3A526A",
"W$	c #606360",
"X$	c #36506A",
"Y$	c #2B455F",
"Z$	c #111C27",
"`$	c #C1D7AD",
" %	c #DAEFC4",
".%	c #7ABD38",
"+%	c #69B81C",
"@%	c #68BA17",
"#%	c #69BC16",
"$%	c #6ABE17",
"%%	c #70C91A",
"&%	c #A5E169",
"*%	c #94AC7C",
"=%	c #080D13",
"-%	c #253B52",
";%	c #63645F",
">%	c #6C6F68",
",%	c #D1E6BD",
"'%	c #8AC74E",
")%	c #67BA16",
"!%	c #68BC16",
"~%	c #75CE1E",
"{%	c #B1E57D",
"]%	c #D9F3BF",
"^%	c #ABC691",
"/%	c #0B1219",
"(%	c #1D2E40",
"_%	c #213448",
":%	c #23384D",
"<%	c #1C2D3F",
"[%	c #0D151D",
"}%	c #020303",
"|%	c #6C6E68",
"1%	c #C4D9B0",
"2%	c #BDE299",
"3%	c #8BCD4B",
"4%	c #6EC01E",
"5%	c #6BC218",
"6%	c #7DCF2E",
"7%	c #9FDE63",
"8%	c #DBF2C3",
"9%	c #A1B98A",
"0%	c #91A082",
"a%	c #D1E7BB",
"b%	c #D7F1BE",
"c%	c #D2EFB7",
"d%	c #DCF4C5",
"e%	c #DFF4CA",
"f%	c #BAD79D",
"g%	c #7B876F",
"h%	c #626460",
"i%	c #7A8173",
"j%	c #A0B28D",
"k%	c #AEC598",
"l%	c #B7CDA1",
"m%	c #AEC498",
"n%	c #96A784",
"o%	c #6E7369",
"p%	c #64665E",
"q%	c #63665D",
"                                                                                                                        ",
"                                                                                                                        ",
"                                                                                                                        ",
"                                                                                                                        ",
"                                                                                                                        ",
"                                                                                                                        ",
"                                                                                  .                                     ",
"                                                                      + @ # $ % & * = - ; . > ,                         ",
"                                                                ' @ ) ! ~ { ] ] ] ] ] ] ] ^ / ( @ _                     ",
"                                                              : < [ } ] ] ] ] ] ] ] ] ] ] ] ] ] | 1 2 3                 ",
"                                                            4 5 6 ] ] ] ] ] 7 ] ] ] ] ] ] ] ] ] ] ] 8 9 0               ",
"                                                          2 a ] ] ] ] ] ] ] b c ] ] ] ] ] ] ] ] ] ] ] d e f             ",
"                                                        2 g ] ] ] ] ] ] ] ] h i j ] ] ] ] ] ] ] ] ] ] ] { % ;           ",
"                                                      > k ] ] ] ] ] ] ] ] ] h l m n ] ] ] ] ] ] ] ] ] ] ] o p           ",
"                                                    _ q ] ] ] ] ] ] ] ] ] ] h l l l r ] ] ] ] ] ] ] ] ] ] ] / >         ",
"                                                    2 8 ] ] ] ] ] ] ] ] ] ] s l l l l t 7 ] ] ] ] ] ] ] ] ] ] u         ",
"                                                  v w ] ] ] ] ] ] ] ] ] ] ] h l l l l l x y ] ] ] ] ] ] ] ] ] z ;       ",
"                                                  : A ] ] ] ] ] ] ] ] ] ] ] h l l l l l l B C ] ] ] ] ] ] ] ] d >       ",
"                                                  D ] ] ] ] ] ] ] ] ] ] ] ] h l l B E l l l F G ] ] ] ] ] ] ] ] w .     ",
"                                                3 H ] ] ] ] ] ] ] ] ] ] ] ] I l l h J K l l l L M ] ] ] ] ] ] ] z ;     ",
"                                                ; N ] ] ] ] ] ] J O P ] ] ] Q l l h ] R S l l l T U ] ] ] ] ] ] V .     ",
"                                                W X ] ] ] ] ] Y Z l `  .] ] Q l l h ] ] ..l l l +.@.] ] ] ] ] ] #.2     ",
"                                                4 $.] ] ] ] ] %.+.l l &.*.] Q l l h ] =.` l l +.-.] ] ] ] ] ] ] ] ;.    ",
"                                                >.] ] ] ] ] ] ] ,.+.l l '.).Q l l h !.~.l l +.{.] ] ] ] ] ] ] ] ] ].'   ",
"                                              . * ] ] ] ] ] ] ] ] -.^.l l './.l l (._.l l :.<.] ] ] ] ] ] ] ] ] ] ! [.  ",
"                                              . }.] ] ] ] ] ] ] ] ] @.'.l l l l l l l l :.|.] ] ] ] ] ] ] ] ] ] ] k f   ",
"                                              . 1.] ] ] ] ] ] ] ] ] ] 2.'.l l l l l l :.3.] ] ] ] ] ] ] ] ] ] ] ] 4.;   ",
"                                              3 1 ] ] ] ] ] ] ] ] ] ] ] n 5.l l l l l 6.] ] ] ] ] ] ] ] ] ] ] ] ] a :   ",
"                                              7.8.] ] ] ] ] ] ] ] ] ] ] ] 9.l l l l 0.] ] ] ] ] ] ] ] ] ] ] ] ] ] a.#   ",
"                                              b.c.] ] ] ] ] ] ] ] ] ] ] d./.l l l l :.e.] ] ] ] ] ] ] ] ] ] ] ] ] a.@   ",
"                                              . f.] ] ] ] ] ] ] ] ] ] g.h.l l l l l l :.i.] ] ] ] ] ] ] ] ] ] ] ] g 2   ",
"                                              . w ] ] ] ] ] ] ] ] ] c j.l l l l l l l l :.9.] ] ] ] ] ] ] ] ] ] ] a :   ",
"                k.l.l.l.l.l.l.m.n.              o.] ] ] ] ] ] ] ] p.q.l l l l l l r._.l l l s.] ] ] ] ] ] ] ] ] ] t.>   ",
"            u.v.w.x.y.z.A.B.C.D.E.F.G.          H.] ] ] ] ] ] ] I.J.l l l K.L.l l M.j N.l l l O.] ] ] ] ] ] ] ] ] z ;   ",
"          F.P.Q.R.S.T.U.V.W.X.Y.Z.`. +.+        # { ] ] ] ] ] ] ++l l l @+] L.l l M.] #+$+l l l %+] ] ] ] ] ] ] ] &++   ",
"        l.*+=+-+;+>+,+'+)+!+~+{+]+^+/+(+_+      # :+] ] ] ] ] ] <+[+l }+7 ] L.l l M.] ] |+l l l ^.1+] ] ] ] ] ] ] f.'   ",
"      2+3+4+5+6+7+7+8+9+0+a+b+c+d+e+f+g+h+_+    ; N ] ] ] ] ] ] ] i+j+7 ] ] L.l l M.] k+[+l l l+m+] ] ] ] ] ] ] ] n+    ",
"    G.o+p+q+r+s+t+u+v+w+x+y+z+A+B+7+C+D+E+l.l.  F+G+H+H+H+H+H+H+H+H+H+H+H+H+I+J+J+K+L+M+l l :.N+] ] ] ] ] ] ] ] $.2     ",
"    l.O+P+Q+P+R+R+S+T+U+V+W+X+Y+u+Z+6+`+ @.@l.l.l.l.l.l.l.+@@@@@@@@@@@l.l.l.l.l.l.l.l.l.#@$@s.] ] ] ] ] ] ] ] ] %@2     ",
"    &@*@=@-@;@>@,@'@)@!@~@{@]@^@/@(@_@:@<@[@}@|@1@2@3@4@5@6@7@8@]+9@0@a@b@c@d@e@f@t+g@h@l.i@] ] ] ] ] ] ] ] ] ] j@[.    ",
"  G.k@l@m@n@.+o@p@l.q@r@s@t@r+u@v@v@w@x@y@z@A@B@C@D@E@F@G@H@I@J@K@L@M@N@O@P@Q@R@S@T@U@O@V@l.] ] ] ] ] ] ] ] ] #.W@      ",
"  _+X@l@Y@_+        Z@`@^+ #.#+#v+~+@###$#%#&#*#=#-#;#>#,#'#)#!#~#{#]#^#/#(#_#:#<#[#}#|#1#l.] ] ] ] ] ] ] ] ] 2#>       ",
"  3#4#l@5#6#        l.7#8#9#)+0#$#$#$#$#$#$#$#$#$#$###$#$#$#a#w@b#c#d#$#$#$#0#$#$#0#e#/@f#l.] ] ] ] ] ] ] ] } g#        ",
"  m.h#l@i#l.        l.j#k#l#m#n#n#o#o#p#$#$#$#$#@#q#r#s#t#!+c@u#v#w#x#y#z#X+A#B#C#$#D#E#F#l.] ] ] ] ] ] ] ] G#;         ",
"  H#I#l@J#l.      2+K#L#M#N#O#P#Q#l#R#S#$#$#$#T#U#V#W#X#Y#Z#`#l.l. $.$b#+$@$#$$$v+d#Y+%$l.&$] ] ] ] ] ] ] *$@           ",
"  3#=$-$;$>$l.l.l.,$'$)$!$N#O#P#Q#l#R#n#~$e@U#{$]$^$l./$($_$:$<$[$}$|$1$2$3$l.4$5$U+6$7$8$] ] ] ] ] ] ] ~ 9$            ",
"    l.0$a$b$c$d$e$f$g$h$i$N#O#P#Q#l#R#j$k$l$m$n$o$m.  o@p$q$Z@r$] s$t$u$v$<$w$x$y$z$A$B$C$] ] ] ] ] ] 2#> v             ",
"    u.D$=+E$F$G$H$I$J$K$i$N#O#P#Q#l#L$M$N$O$l.l.o@      G.@@P$Q$R$S$6#+@T$U$] V$W$l.T$X$] ] ] ] ] Y$Z$4                 ",
"      Z@`$ %.%+%@%#%$%K$i$N#O#%%Q#l#&%<@*%2+                    @ =%z d ] ] ] ] ] ] ] ] ] ] #.-%].@ [.                  ",
"      ;%>%,% %'%)%!%$%K$i$N#O#%%~%{%]%^%l.                        . : @ /%1 (%_%:%:%_%<%c.[%> 4 }%                      ",
"        _+|%1%l@2%3%4%5%i$N#6%7%2@8%9%Z@n.                                3 f > : : > f b.                              ",
"          l.Z@0%a%-$l@b%c%d%l@e%f%g%v.h%                                                                                ",
"              _+l.i%j%k%l%m%n%o%l.G.                                                                                    ",
"                  6#p%m.v.q%2+;%                                                                                        ",
"                                                                                                                        ",
"                                                                                                                        ",
"                                                                                                                        ",
"                                                                                                                        ",
"                                                                                                                        ",
"                                                                                                                        "};
