/* XPM */
static char * logo_50_xpm[] = {
"50 50 17 1",
" 	c None",
".	c #00A9D7",
"+	c #06A9D2",
"@	c #0CAAD3",
"#	c #11ABD4",
"$	c #00B0D7",
"%	c #00B2DA",
"&	c #17ADD6",
"*	c #00B4DC",
"=	c #1EB0D9",
"-	c #22B5D7",
";	c #29B8DA",
">	c #2DBADD",
",	c #31BDDF",
"'	c #36BFE2",
")	c #41BDDA",
"!	c #45C0DD",
"                                                  ",
"                        @$                        ",
"                        @#                        ",
"                        @@                        ",
"                       #+@;                       ",
"                       +++$                       ",
"                      $@@@@;                      ",
"                      ###@@-                      ",
"                     ;####@$,                     ",
"                     &$####&>                     ",
"                    $$$&$$$#;'                    ",
"                    $$$$$&&$$,                    ",
"                    $$$$$$$$&;                    ",
"                   ;$-$$$=$$&-)                   ",
"                   -$$$$$$$$$$,                   ",
"                    -*---$$$$$;!                  ",
"                  >  ;--*-$*$$$)                  ",
"                 ,;;  >-*--****;!                 ",
"                 ;;;;;  ;--****-!                 ",
"                >>>;;;;> ;;;---*;!                ",
"                ,>>>;;;;;;;;;----'                ",
"               !>,,>>>>>>;;;;;;;;;!               ",
"               ,,,,,,>>>>;;;;;;;;;)               ",
"              ')'),,,,,>;;;;;;;;;;;!              ",
"              !''))',-$#@@@@@@@@#&*,              ",
"             !'!!!;$+++.+++@@+++++++>             ",
"             !!!;#@+@+@++++@@@+@++++@             ",
"            !!>&+@+.+++++.+.+++++@+++$            ",
"            '$@++@++@@@++++++@++@@++++-           ",
"           -++++++@+++##  $#++@+++++@+@           ",
"           ++@++++@++@      @+.@++.++.+#          ",
"          #@+@+++++@@        ++@@@@+@@@#          ",
"         -++@+.@+@++$        $+.++@+@+@+$         ",
"         @+++@@++++@          @++@+++++@+         ",
"        $@++++@++++@          @+@+@@+++++$        ",
"        @++@+++++@+$          $+++++.+++@@        ",
"       $+.@++++@+@+            +@+@++$$+++&       ",
"       +@@++@@+@@@+            +@++@+@&  ##       ",
"      &+++@@+@@++++            @++.@@@++$  >      ",
"      @@++@@+++@+@+            +@++++@@++#        ",
"     @++@@.++++@+@+            ++@@+++++@@@-      ",
"     @@@+++++@@+++#-           #++++++++@@+@#     ",
"    #++@+++++@+#&                &#@++@@+@+++$    ",
"   $+@+@++++&                        &++@+++@+$   ",
"   @++@++@$                            #+@+@@@+   ",
"  $@+@+#&                                $@+@+@$  ",
"  ++++$                                    $@@++  ",
" #+#$                                        $@+& ",
" @&                                            &@ ",
";                                                ;"};
