/* XPM */
static const char * const logo_50_xpm[] = {
"50 50 2 1",
" 	c None",
".	c #1793D1",
"                                                  ",
"                        ..                        ",
"                        ..                        ",
"                        ..                        ",
"                       ....                       ",
"                       ....                       ",
"                      ......                      ",
"                      ......                      ",
"                      .......                     ",
"                     ........                     ",
"                     .........                    ",
"                    ..........                    ",
"                    ..........                    ",
"                   ............                   ",
"                   ............                   ",
"                    ............                  ",
"                  .  ...........                  ",
"                 .... ...........                 ",
"                 ..... ..........                 ",
"                ..................                ",
"                ..................                ",
"               ....................               ",
"               ....................               ",
"              ......................              ",
"              ......................              ",
"             ........................             ",
"             ........................             ",
"            ..........................            ",
"            ..........................            ",
"           .............   ............           ",
"           ...........      ............          ",
"          ...........        ...........          ",
"          ...........        ............         ",
"         ...........          ...........         ",
"         ...........          ............        ",
"        ............          ............        ",
"       .............           ............       ",
"       ............            ........  ..       ",
"      .............            ..........         ",
"      ..............           ...........        ",
"     ...............           .............      ",
"     ..............            ..............     ",
"    ............                  ............    ",
"    .........                        .........    ",
"   ........                            ........   ",
"  ......                                  ......  ",
"  ....                                      ....  ",
" ....                                        .... ",
" ..                                            .. ",
"                                                  "};
