<?xml version="1.0" encoding="utf-8"?>
<!-- Generator: Adobe Illustrator 24.1.0, SVG Export Plug-In . SVG Version: 6.00 Build 0)  -->
<svg version="1.1" id="Layer_1" xmlns="http://www.w3.org/2000/svg" xmlns:xlink="http://www.w3.org/1999/xlink" x="0px" y="0px"
	 viewBox="0 0 256 256" style="enable-background:new 0 0 256 256;" xml:space="preserve">
<style type="text/css">
	.st0{opacity:0.5;fill:url(#SVGID_1_);}
	.st1{fill:#60B515;}
	.st2{opacity:0.5;fill:url(#SVGID_2_);}
	.st3{opacity:0.5;fill:url(#SVGID_3_);}
	.st4{opacity:0.5;fill:url(#SVGID_4_);}
	.st5{fill:#FFFFFF;}
</style>
<g>
	<linearGradient id="SVGID_1_" gradientUnits="userSpaceOnUse" x1="64.0806" y1="43.1947" x2="123.8763" y2="124.7804">
		<stop  offset="0" style="stop-color:#000F55;stop-opacity:0.94"/>
		<stop  offset="0.6745" style="stop-color:#000F55;stop-opacity:0"/>
	</linearGradient>
	<polygon class="st0" points="227.8,183.7 85.2,180.6 10.2,137.8 186.5,74.7 227.8,98.5"/>
	<path class="st1" d="M224.4,10H31.6C19.7,10,10,19.5,10,31.3V138h236V31.3C246,19.5,236.3,10,224.4,10z M62.2,46L46,46l0,16.2
		c0,1.2-0.5,2.4-1.5,3.1C39.5,69.2,34,65.8,34,61V40.3c0-3.5,2.8-6.3,6.3-6.3H61c4.8,0,8.2,5.5,4.3,10.5C64.6,45.5,63.4,46,62.2,46z
		"/>
	<linearGradient id="SVGID_2_" gradientUnits="userSpaceOnUse" x1="127.1157" y1="82.3177" x2="223.3724" y2="142.6821">
		<stop  offset="0" style="stop-color:#000F55;stop-opacity:0.94"/>
		<stop  offset="0.6745" style="stop-color:#000F55;stop-opacity:0"/>
	</linearGradient>
	<path class="st2" d="M219,178.2l-10.6,0.1L67.3,96.5l94.5-41.3l76.5,45v58.5C238.2,169.4,229.7,178.1,219,178.2z"/>
	<linearGradient id="SVGID_3_" gradientUnits="userSpaceOnUse" x1="152.053" y1="127.392" x2="214.1225" y2="166.3169">
		<stop  offset="0" style="stop-color:#000F55;stop-opacity:0.94"/>
		<stop  offset="0.6745" style="stop-color:#000F55;stop-opacity:0"/>
	</linearGradient>
	<path class="st3" d="M179,185.8l-10.6,0.1L97.9,145l87.9-46.2l57.3,34.2l-44.9,33.3C198.2,176.9,189.7,185.6,179,185.8z"/>
	<linearGradient id="SVGID_4_" gradientUnits="userSpaceOnUse" x1="82.0038" y1="138.7173" x2="119.9527" y2="202.1319">
		<stop  offset="0" style="stop-color:#000F55;stop-opacity:0.94"/>
		<stop  offset="0.6745" style="stop-color:#000F55;stop-opacity:0"/>
	</linearGradient>
	<polygon class="st4" points="206.8,226.2 95.8,226.2 20.8,184.2 175.6,181.3 206.8,199.3"/>
	<path class="st5" d="M184.6,98.2c0-0.1-0.1-0.1-0.1-0.2c0.2-28.2-22.5-51.4-50.8-51.8h-0.6c-7.5,0-14.9,1.6-21.7,4.8
		c-13.5,6.6-23.2,17.9-27.3,31.7c-0.1,0.1-0.1,0.1-0.2,0.1c-20.1,2.5-34.6,21.4-30.8,42.3c0.9,5,3,9.8,5.9,14
		c7,9.7,17.7,15.1,29.2,15.1c0,0,0.1,0,0.1,0h84.3c16.2,0,29.3-13.2,29.2-29.4C201.9,113.3,195.1,102.9,184.6,98.2z"/>
	<rect x="107" y="199" class="st1" width="41" height="39"/>
	<path class="st1" d="M10,150v16.7c0,11.8,9.7,21.3,21.6,21.3h192.8c11.9,0,21.6-9.6,21.6-21.3V150H10z"/>
	<path class="st1" d="M171,246H84c-3.3,0-6-2.7-6-6l0,0c0-3.3,2.7-6,6-6h87c3.3,0,6,2.7,6,6l0,0C177,243.3,174.3,246,171,246z"/>
</g>
</svg>
